<svg width="19" height="19" viewBox="0 0 19 19" fill="none" xmlns="http://www.w3.org/2000/svg">
<path d="M9.59985 11.4C10.8425 11.4 11.8499 10.3927 11.8499 9.15002C11.8499 7.90738 10.8425 6.90002 9.59985 6.90002C8.35721 6.90002 7.34985 7.90738 7.34985 9.15002C7.34985 10.3927 8.35721 11.4 9.59985 11.4Z" stroke="#181818" stroke-width="1.125" stroke-miterlimit="10" stroke-linecap="round" stroke-linejoin="round"/>
<path d="M2.09985 9.81004V8.49004C2.09985 7.71004 2.73735 7.06504 3.52485 7.06504C4.88235 7.06504 5.43735 6.10504 4.75485 4.92754C4.36485 4.25254 4.59735 3.37504 5.27985 2.98504L6.57735 2.24254C7.16985 1.89004 7.93485 2.10004 8.28735 2.69254L8.36985 2.83504C9.04485 4.01254 10.1549 4.01254 10.8374 2.83504L10.9199 2.69254C11.2724 2.10004 12.0374 1.89004 12.6299 2.24254L13.9274 2.98504C14.6099 3.37504 14.8424 4.25254 14.4524 4.92754C13.7699 6.10504 14.3249 7.06504 15.6824 7.06504C16.4624 7.06504 17.1074 7.70254 17.1074 8.49004V9.81004C17.1074 10.59 16.4699 11.235 15.6824 11.235C14.3249 11.235 13.7699 12.195 14.4524 13.3725C14.8424 14.055 14.6099 14.925 13.9274 15.315L12.6299 16.0575C12.0374 16.41 11.2724 16.2 10.9199 15.6075L10.8374 15.465C10.1624 14.2875 9.05235 14.2875 8.36985 15.465L8.28735 15.6075C7.93485 16.2 7.16985 16.41 6.57735 16.0575L5.27985 15.315C4.59735 14.925 4.36485 14.0475 4.75485 13.3725C5.43735 12.195 4.88235 11.235 3.52485 11.235C2.73735 11.235 2.09985 10.59 2.09985 9.81004Z" stroke="#181818" stroke-width="1.125" stroke-miterlimit="10" stroke-linecap="round" stroke-linejoin="round"/>
</svg>
