<svg width="18" height="18" viewBox="0 0 18 18" fill="none" xmlns="http://www.w3.org/2000/svg">
<path d="M9.38984 9.785C9.33734 9.7775 9.26984 9.7775 9.20984 9.785C7.88984 9.74 6.83984 8.66 6.83984 7.3325C6.83984 5.975 7.93484 4.8725 9.29984 4.8725C10.6573 4.8725 11.7598 5.975 11.7598 7.3325C11.7523 8.66 10.7098 9.74 9.38984 9.785Z" stroke="#181818" stroke-width="1.125" stroke-linecap="round" stroke-linejoin="round"/>
<path d="M14.3549 14.735C13.0199 15.9575 11.2499 16.7 9.29987 16.7C7.34987 16.7 5.57987 15.9575 4.24487 14.735C4.31987 14.03 4.76987 13.34 5.57237 12.8C7.62737 11.435 10.9874 11.435 13.0274 12.8C13.8299 13.34 14.2799 14.03 14.3549 14.735Z" stroke="#181818" stroke-width="1.125" stroke-linecap="round" stroke-linejoin="round"/>
<path d="M9.30029 16.7001C13.4424 16.7001 16.8003 13.3423 16.8003 9.20013C16.8003 5.058 13.4424 1.70013 9.30029 1.70013C5.15816 1.70013 1.80029 5.058 1.80029 9.20013C1.80029 13.3423 5.15816 16.7001 9.30029 16.7001Z" stroke="#181818" stroke-width="1.125" stroke-linecap="round" stroke-linejoin="round"/>
</svg>
