<svg width="903" height="567" viewBox="0 0 903 567" fill="none" xmlns="http://www.w3.org/2000/svg">
<g clip-path="url(#clip0_760_415)">
<rect width="903" height="567" rx="4" fill="#F2F4F7"/>
<g clip-path="url(#clip1_760_415)">
<mask id="mask0_760_415" style="mask-type:luminance" maskUnits="userSpaceOnUse" x="-218" y="-60" width="1440" height="638">
<path d="M1222 -60H-218V578H1222V-60Z" fill="white"/>
</mask>
<g mask="url(#mask0_760_415)">
<path opacity="0.1" d="M260.722 48.6791C260.722 48.6791 260.722 48.6791 260.722 48.6284C260.722 48.5777 260.722 48.4762 260.722 48.4255C260.722 48.3748 260.722 48.3241 260.722 48.2227C260.722 48.172 260.722 48.1212 260.722 48.0705C260.722 48.0198 260.668 47.9691 260.615 47.8677C260.615 47.8677 260.615 47.817 260.615 47.7663L169.731 -101.079C169.731 -101.079 169.677 -101.129 169.624 -101.18C169.624 -101.18 169.57 -101.281 169.516 -101.281C169.516 -101.281 169.463 -101.332 169.409 -101.383C169.409 -101.383 169.355 -101.484 169.302 -101.484C169.302 -101.484 169.248 -101.484 169.194 -101.535C169.194 -101.535 169.087 -101.586 169.034 -101.636C169.034 -101.636 169.034 -101.636 168.98 -101.636C168.98 -101.636 168.873 -101.636 168.819 -101.687C168.819 -101.687 168.819 -101.687 168.765 -101.687C168.765 -101.687 168.712 -101.687 168.658 -101.687C168.658 -101.687 168.658 -101.687 168.604 -101.687C168.497 -101.687 168.443 -101.687 168.336 -101.687C168.336 -101.687 168.336 -101.687 168.282 -101.687C168.229 -101.687 168.121 -101.687 168.068 -101.687C168.068 -101.687 168.014 -101.687 167.961 -101.687C167.961 -101.687 167.853 -101.687 167.8 -101.636C167.746 -101.636 167.692 -101.636 167.639 -101.586C167.639 -101.586 167.585 -101.586 167.531 -101.535C167.531 -101.535 167.424 -101.434 167.37 -101.434C167.37 -101.434 167.263 -101.332 167.209 -101.281C167.209 -101.281 167.156 -101.18 167.102 -101.129C167.102 -101.129 167.102 -101.129 167.048 -101.079L76.1112 47.7663C76.1112 47.7663 76.1112 47.817 76.1112 47.8677C76.1112 47.8677 76.0576 47.9691 76.0039 48.0198C76.0039 48.0198 76.0039 48.1212 76.0039 48.172C76.0039 48.2227 76.0039 48.3241 76.0039 48.3748C76.0039 48.3748 76.0039 48.4762 76.0039 48.5269C76.0039 48.5269 76.0039 48.527 76.0039 48.5777C76.0039 48.5777 76.0039 48.6284 76.0039 48.6791C76.0039 48.7298 76.0039 48.7805 76.0039 48.8819C76.0039 48.8819 76.0039 48.9327 76.0039 48.9834C76.0039 48.9834 76.0039 49.0341 76.0039 49.0848C76.0039 49.1355 76.0576 49.1862 76.1112 49.237C76.1112 49.237 76.1112 49.3384 76.1649 49.3384C76.1649 49.3384 76.1649 49.3891 76.2185 49.4398C76.2185 49.4398 76.2185 49.4398 76.2722 49.4398C76.2722 49.4398 76.3795 49.5412 76.4331 49.5919C76.5404 49.6427 76.5941 49.6934 76.7014 49.7441C76.7014 49.7441 76.755 49.7441 76.8087 49.7948C76.8087 49.7948 76.8623 49.7948 76.916 49.7948C76.916 49.7948 76.916 49.7948 76.9696 49.7948C76.9696 49.7948 77.0769 49.7948 77.1306 49.7948C77.2379 49.7948 77.3452 49.7948 77.4525 49.7948H259.273C259.273 49.7948 259.649 49.7948 259.81 49.6934C259.863 49.6934 259.917 49.6427 259.971 49.5919C260.078 49.5412 260.185 49.4905 260.293 49.3891C260.293 49.3891 260.4 49.2877 260.454 49.237C260.507 49.1862 260.561 49.1355 260.615 49.0341C260.615 49.0341 260.615 49.0341 260.615 48.9834C260.615 48.9327 260.668 48.882 260.722 48.8312C260.722 48.8312 260.722 48.7805 260.722 48.7298C260.722 48.7298 260.722 48.6284 260.722 48.5777C260.722 48.5777 260.722 48.4762 260.722 48.4255V48.3241V48.6791ZM216.997 40.5649L188.562 36.2035H233.199L250.582 45.687L216.997 40.5649ZM166.512 -91.8994V-73.8453V-72.9832L156.587 -56.7041L144.193 -36.4186L160.289 -76.381L166.512 -91.8994ZM113.72 13.4837L101.488 33.5157L84.1051 42.9991L123.806 -2.99822L113.72 13.5345V13.4837ZM131.317 12.4695L136.897 -18.1109L162.113 -37.9907L131.317 12.4188V12.4695ZM189.582 -12.786L174.184 -37.9907L199.4 -18.1109L204.979 12.4695L189.582 -12.7353V-12.786ZM168.175 -41.6421L186.738 -11.2139L205.301 19.2144H130.942L149.505 -11.2139L168.068 -41.6421H168.175ZM198.97 22.3079L168.175 33.0086L137.38 22.3079H198.97ZM166.512 -45.4456L161.147 -41.1857L141.457 -25.6673L166.512 -66.7454V-45.4456ZM126.65 19.7723L107.121 30.4221L132.176 -10.656L126.596 19.7723H126.65ZM209.647 19.7723L204.067 -10.656L229.122 30.4221L222.63 26.8722L209.647 19.7723ZM219.411 8.31095L212.49 -3.04893L252.192 42.9991L234.809 33.5157L219.411 8.31095ZM194.893 -25.718L176.545 -40.2221L169.838 -45.4963V-66.7454L170.107 -66.3397L194.947 -25.6673L194.893 -25.718ZM128.313 22.4601L129.708 22.9672L158.947 33.11H108.784L128.313 22.4601ZM192.747 27.785L208.037 22.4601L225.098 31.7914L227.512 33.11H177.349L192.747 27.785ZM192.103 -36.3679L187.328 -44.2285L169.785 -72.9325V-91.8994L190.762 -39.7657L192.103 -36.3679ZM85.7683 45.687L103.151 36.2035H147.788L120.319 40.4128L85.7683 45.687ZM202.35 -19.7338L176.974 -82.8724L247.524 32.6028L202.404 -19.7338H202.35ZM134 -19.7338L88.88 32.6028L159.43 -82.8724L134.054 -19.7338H134ZM97.625 47.0055L168.175 36.2035L238.725 47.0055H97.625Z" fill="#99A8BF"/>
<path opacity="0.1" d="M458.854 373.856C458.854 373.856 458.854 373.805 458.854 373.755C458.854 373.755 458.854 373.704 458.854 373.653C458.854 373.653 458.854 373.602 458.854 373.552C458.854 373.552 458.854 373.501 458.854 373.45C458.854 373.45 458.854 373.45 458.854 373.4L409.496 292.613C409.496 292.613 409.496 292.613 409.496 292.562C409.496 292.562 409.496 292.562 409.496 292.511C409.496 292.511 409.496 292.511 409.442 292.46C409.442 292.46 409.442 292.46 409.389 292.46C409.389 292.46 409.389 292.46 409.281 292.46C409.281 292.46 409.228 292.46 409.174 292.46C409.174 292.46 409.174 292.46 409.12 292.46C409.12 292.46 409.013 292.46 408.959 292.46C408.959 292.46 408.906 292.46 408.852 292.46C408.852 292.46 408.852 292.46 408.798 292.46C408.798 292.46 408.798 292.46 408.745 292.46C408.745 292.46 408.745 292.46 408.691 292.46C408.691 292.46 408.691 292.46 408.637 292.511C408.637 292.511 408.584 292.511 408.53 292.613C408.53 292.613 408.53 292.613 408.53 292.663L359.172 373.45C359.172 373.45 359.172 373.45 359.172 373.501C359.172 373.501 359.172 373.501 359.172 373.602C359.172 373.602 359.172 373.653 359.172 373.704C359.172 373.704 359.172 373.755 359.172 373.805C359.172 373.805 359.172 373.805 359.172 373.856C359.172 373.856 359.172 373.856 359.172 373.907C359.172 373.907 359.172 373.957 359.172 374.008C359.172 374.008 359.172 374.008 359.172 374.059C359.172 374.059 359.172 374.11 359.172 374.16C359.172 374.16 359.172 374.16 359.172 374.211C359.172 374.211 359.172 374.211 359.225 374.262C359.225 374.262 359.333 374.312 359.386 374.363C359.386 374.363 359.386 374.363 359.44 374.363C359.44 374.363 359.44 374.363 359.494 374.363C359.547 374.363 359.601 374.363 359.655 374.363H458.371C458.371 374.363 458.586 374.363 458.693 374.312C458.693 374.312 458.747 374.312 458.8 374.312C458.854 374.312 458.908 374.262 458.961 374.211C458.961 374.211 459.015 374.211 459.069 374.16C459.069 374.16 459.122 374.11 459.176 374.059C459.176 374.059 459.176 374.008 459.176 373.957C459.176 373.957 459.176 373.957 459.176 373.907C459.176 373.907 459.176 373.856 459.176 373.805C459.176 373.805 459.176 373.805 459.176 373.755L458.854 373.856ZM435.141 369.444L419.689 367.06H443.939L453.382 372.182L435.141 369.393V369.444ZM407.779 297.532V307.32V307.776L402.414 316.6L395.708 327.605L404.453 305.9L407.833 297.481L407.779 297.532ZM379.076 354.737L372.424 365.59L362.981 370.712L384.495 345.71L379.022 354.686L379.076 354.737ZM388.68 354.179L391.738 337.596L405.418 326.794L388.68 354.179ZM420.28 340.486L411.91 326.794L425.591 337.596L428.649 354.179L420.28 340.486ZM408.637 324.816L418.724 341.348L428.81 357.881H388.465L398.551 341.348L408.637 324.816ZM425.376 359.504L408.637 365.285L391.899 359.504H425.323H425.376ZM407.779 322.737L404.882 325.019L394.206 333.437L407.833 311.174V322.737H407.779ZM386.104 358.135L375.535 363.916L389.162 341.653L386.158 358.135H386.104ZM431.171 358.135L428.166 341.653L441.793 363.916L438.252 361.989L431.224 358.135H431.171ZM436.482 351.948L432.726 345.811L454.24 370.813L444.798 365.691L436.428 351.998L436.482 351.948ZM423.123 333.488L413.144 325.627L409.496 322.737V311.174L409.603 311.377L423.069 333.437L423.123 333.488ZM387.016 359.605L387.767 359.859L403.648 365.387H376.447L387.016 359.605ZM421.996 362.496L430.312 359.605L439.594 364.677L440.881 365.387H413.681L422.05 362.496H421.996ZM421.674 327.656L419.046 323.396L409.55 307.827V297.532L420.923 325.83L421.674 327.656ZM363.947 372.233L373.389 367.111H397.639L382.724 369.393L364 372.284L363.947 372.233ZM427.2 336.734L413.412 302.451L451.665 365.133L427.147 336.734H427.2ZM390.074 336.734L365.556 365.133L403.863 302.451L390.074 336.734ZM370.331 372.943L408.637 367.111L446.944 372.943H370.385H370.331Z" fill="#99A8BF"/>
<path opacity="0.1" d="M338.837 168.871C338.837 168.871 338.837 168.82 338.837 168.77C338.837 168.77 338.837 168.719 338.837 168.668C338.837 168.668 338.837 168.617 338.837 168.567C338.837 168.567 338.837 168.516 338.837 168.465C338.837 168.465 338.837 168.465 338.837 168.415L289.478 87.6275C289.478 87.6275 289.478 87.6275 289.478 87.5768C289.478 87.5768 289.478 87.5768 289.478 87.5261C289.478 87.5261 289.478 87.5261 289.425 87.4753C289.425 87.4753 289.425 87.4753 289.371 87.4753C289.371 87.4753 289.371 87.4753 289.264 87.4753C289.264 87.4753 289.21 87.4753 289.156 87.4753C289.156 87.4753 289.156 87.4753 289.103 87.4753C289.103 87.4753 288.995 87.4753 288.942 87.4753C288.942 87.4753 288.888 87.4753 288.834 87.4753C288.834 87.4753 288.834 87.4753 288.781 87.4753C288.781 87.4753 288.781 87.4753 288.727 87.4753C288.727 87.4753 288.727 87.4753 288.674 87.4753C288.674 87.4753 288.674 87.4753 288.62 87.5261C288.62 87.5261 288.566 87.5261 288.513 87.6275C288.513 87.6275 288.513 87.6275 288.513 87.6782L239.154 168.465C239.154 168.465 239.154 168.465 239.154 168.516C239.154 168.516 239.154 168.516 239.154 168.617C239.154 168.617 239.154 168.668 239.154 168.719C239.154 168.719 239.154 168.77 239.154 168.82C239.154 168.82 239.154 168.82 239.154 168.871C239.154 168.871 239.154 168.871 239.154 168.922C239.154 168.922 239.154 168.972 239.154 169.023C239.154 169.023 239.154 169.023 239.154 169.074C239.154 169.074 239.154 169.124 239.154 169.175C239.154 169.175 239.154 169.175 239.154 169.226C239.154 169.226 239.154 169.226 239.208 169.277C239.208 169.277 239.315 169.327 239.369 169.378C239.369 169.378 239.369 169.378 239.423 169.378C239.423 169.378 239.423 169.378 239.476 169.378C239.53 169.378 239.584 169.378 239.637 169.378H338.354C338.354 169.378 338.568 169.378 338.676 169.327C338.676 169.327 338.729 169.327 338.783 169.327C338.837 169.327 338.89 169.277 338.944 169.226C338.944 169.226 338.998 169.226 339.051 169.175C339.051 169.175 339.105 169.124 339.158 169.074C339.158 169.074 339.158 169.023 339.158 168.972C339.158 168.972 339.158 168.972 339.158 168.922C339.158 168.922 339.158 168.871 339.158 168.82C339.158 168.82 339.158 168.82 339.158 168.77L338.837 168.871ZM315.123 164.459L299.672 162.075H323.922L333.364 167.197L315.123 164.408V164.459ZM287.708 92.5974V102.385V102.842L282.343 111.666L275.637 122.671L284.382 100.965L287.761 92.5467L287.708 92.5974ZM259.059 149.803L252.406 160.655L242.963 165.777L264.477 140.776L259.005 149.752L259.059 149.803ZM268.608 149.194L271.666 132.611L285.347 121.809L268.608 149.194ZM300.262 135.501L291.893 121.809L305.573 132.611L308.631 149.194L300.262 135.501ZM288.62 119.831L298.706 136.363L308.792 152.896H268.447L278.534 136.363L288.62 119.831ZM305.359 154.57L288.62 160.351L271.881 154.57H305.305H305.359ZM287.708 117.802L284.811 120.084L274.134 128.503L287.761 106.239V117.802H287.708ZM266.087 153.2L255.518 158.982L269.145 136.718L266.14 153.2H266.087ZM311.153 153.2L308.149 136.718L321.776 158.982L318.235 157.055L311.207 153.2H311.153ZM316.464 146.963L312.709 140.826L334.223 165.828L324.78 160.706L316.411 147.013L316.464 146.963ZM303.105 128.503L293.126 120.642L289.478 117.751V106.189L289.586 106.392L303.052 128.452L303.105 128.503ZM266.999 154.62L267.75 154.874L283.63 160.402H256.43L266.999 154.62ZM301.979 157.511L310.295 154.62L319.576 159.692L320.864 160.402H293.663L302.032 157.511H301.979ZM301.603 122.721L298.974 118.461L289.478 102.892V92.5974L300.852 120.896L301.603 122.721ZM243.876 167.248L253.318 162.126H277.568L262.653 164.408L243.929 167.299L243.876 167.248ZM307.183 131.748L293.395 97.466L331.647 160.148L307.129 131.748H307.183ZM270.057 131.748L245.539 160.148L283.845 97.466L270.057 131.748ZM250.314 167.958L288.62 162.126L326.926 167.958H250.367H250.314Z" fill="#99A8BF"/>
<path opacity="0.1" d="M494.16 206.247C494.16 206.247 494.16 206.348 494.16 206.399V206.501V206.602C494.16 206.602 494.16 206.703 494.214 206.754C494.214 206.754 494.214 206.805 494.214 206.856L558.648 312.391C558.648 312.391 558.648 312.391 558.701 312.442C558.701 312.442 558.701 312.492 558.755 312.543C558.755 312.543 558.755 312.543 558.809 312.594C558.809 312.594 558.809 312.644 558.862 312.695C558.862 312.695 558.862 312.695 558.916 312.695C558.916 312.695 558.97 312.695 559.023 312.746C559.023 312.746 559.077 312.746 559.131 312.746C559.131 312.746 559.131 312.746 559.184 312.746C559.238 312.746 559.291 312.746 559.399 312.746C559.399 312.746 559.399 312.746 559.452 312.746C559.452 312.746 559.56 312.746 559.613 312.746C559.613 312.746 559.613 312.746 559.667 312.746C559.667 312.746 559.721 312.746 559.774 312.746C559.774 312.746 559.828 312.746 559.882 312.695C559.882 312.695 559.935 312.695 559.989 312.644C559.989 312.644 560.043 312.594 560.096 312.543C560.096 312.543 560.15 312.492 560.204 312.442C560.204 312.442 560.204 312.391 560.257 312.34L624.691 206.805C624.691 206.805 624.691 206.754 624.691 206.703C624.691 206.703 624.691 206.653 624.745 206.602C624.745 206.602 624.745 206.551 624.745 206.501C624.745 206.501 624.745 206.399 624.745 206.348C624.745 206.348 624.745 206.298 624.745 206.247C624.745 206.247 624.745 206.247 624.745 206.196C624.745 206.196 624.745 206.196 624.745 206.095C624.745 206.095 624.745 205.993 624.745 205.943C624.745 205.943 624.745 205.943 624.745 205.892C624.745 205.892 624.745 205.892 624.745 205.841C624.745 205.841 624.745 205.74 624.691 205.74C624.691 205.74 624.691 205.689 624.691 205.638C624.691 205.638 624.691 205.638 624.691 205.588C624.691 205.588 624.638 205.537 624.584 205.486C624.53 205.486 624.477 205.385 624.369 205.385C624.369 205.385 624.369 205.385 624.316 205.385C624.316 205.385 624.316 205.385 624.262 205.385C624.262 205.385 624.208 205.385 624.155 205.385C624.101 205.385 623.994 205.385 623.94 205.385H495.018C495.018 205.385 494.75 205.385 494.643 205.436C494.643 205.436 494.589 205.436 494.536 205.486C494.482 205.486 494.375 205.588 494.321 205.638C494.321 205.638 494.267 205.689 494.214 205.74C494.214 205.74 494.106 205.841 494.106 205.892C494.106 205.892 494.106 205.993 494.053 205.993C494.053 205.993 494.053 205.993 494.053 206.044C494.053 206.044 494.053 206.095 494.053 206.146C494.053 206.146 494.053 206.196 494.053 206.247C494.053 206.247 494.053 206.298 494.053 206.348L494.16 206.247ZM525.17 211.978L545.342 215.071H513.689L501.403 208.377L525.224 212.028L525.17 211.978ZM560.955 305.849V293.018V292.41L567.983 280.898L576.781 266.546L565.408 294.895L561.008 305.9L560.955 305.849ZM598.349 231.147L606.987 216.948L619.273 210.253L591.16 242.862L598.295 231.147H598.349ZM585.902 231.908L581.932 253.563L564.066 267.661L585.902 231.908ZM544.591 249.759L555.536 267.661L537.67 253.563L533.7 231.908L544.645 249.81L544.591 249.759ZM559.774 270.248L546.576 248.694L533.378 227.141H586.063L572.865 248.694L559.667 270.248H559.774ZM537.939 224.91L559.774 217.303L581.61 224.91H537.939ZM560.955 272.936L564.764 269.943L578.713 258.939L560.955 288.048V272.936ZM589.175 226.685L603.016 219.128L585.258 248.238L589.228 226.685H589.175ZM530.374 226.685L534.344 248.238L516.586 219.128L521.2 221.664L530.428 226.685H530.374ZM523.453 234.85L528.389 242.913L500.276 210.304L512.562 216.998L523.453 234.85ZM540.836 258.939L553.873 269.183L558.648 272.936V288.048L558.487 287.744L540.889 258.939H540.836ZM588.048 224.808L587.029 224.453L566.32 217.252H601.89L588.048 224.808ZM542.338 221.055L531.501 224.808L519.376 218.215L517.659 217.303H553.229L542.338 221.106V221.055ZM542.821 266.546L546.201 272.124L558.648 292.46V305.9L543.787 268.98L542.821 266.596V266.546ZM618.2 208.326L605.914 215.02H574.26L593.735 212.028L618.253 208.276L618.2 208.326ZM535.578 254.729L553.551 299.459L503.549 217.607L535.524 254.729H535.578ZM584.024 254.729L616.054 217.607L566.051 299.459L584.078 254.729H584.024ZM609.776 207.413L559.774 215.071L509.772 207.413H609.776Z" fill="#99A8BF"/>
<path opacity="0.1" d="M753.985 500.032C753.985 500.032 753.985 500.083 753.985 500.133C753.985 500.133 753.985 500.184 753.985 500.235C753.985 500.235 753.985 500.235 753.985 500.286C753.985 500.286 753.985 500.336 753.985 500.387L793.15 564.54C793.15 564.54 793.15 564.54 793.15 564.591C793.15 564.591 793.15 564.591 793.203 564.591C793.203 564.591 793.203 564.591 793.257 564.591C793.257 564.591 793.311 564.591 793.364 564.591C793.364 564.591 793.418 564.591 793.472 564.591C793.472 564.591 793.471 564.591 793.525 564.591C793.525 564.591 793.525 564.591 793.579 564.591C793.579 564.591 793.579 564.591 793.632 564.54C793.632 564.54 793.633 564.54 793.686 564.489C793.686 564.489 793.686 564.489 793.686 564.438L832.851 500.286C832.851 500.286 832.851 500.286 832.851 500.235C832.851 500.235 832.851 500.235 832.851 500.184C832.851 500.184 832.851 500.133 832.851 500.083C832.851 500.083 832.851 500.083 832.851 500.032C832.851 500.032 832.851 499.981 832.851 499.931C832.851 499.931 832.851 499.931 832.851 499.88C832.851 499.88 832.851 499.88 832.797 499.829C832.797 499.829 832.744 499.778 832.69 499.778C832.69 499.778 832.69 499.778 832.636 499.778C832.636 499.778 832.529 499.778 832.475 499.778H754.092C754.092 499.778 753.931 499.778 753.878 499.778C753.878 499.778 753.878 499.778 753.824 499.778C753.824 499.778 753.717 499.778 753.717 499.88C753.717 499.88 753.717 499.88 753.663 499.931C753.663 499.931 753.663 499.981 753.609 500.032C753.609 500.032 753.609 500.032 753.609 500.083C753.609 500.083 753.609 500.083 753.609 500.133C753.609 500.133 753.609 500.133 753.609 500.184C753.609 500.184 753.609 500.184 753.609 500.235L753.985 500.032ZM772.816 503.531L785.048 505.408H765.788L758.331 501.3L772.816 503.531ZM794.544 560.584V552.825V552.419L798.837 545.421L804.148 536.698L797.227 553.941L794.544 560.635V560.584ZM817.346 515.195L822.604 506.574L830.061 502.466L812.947 522.295L817.292 515.145L817.346 515.195ZM809.728 515.652L807.313 528.837L796.476 537.408L809.728 515.652ZM784.619 526.505L791.272 537.357L780.435 528.787L778.02 515.601L784.673 526.454L784.619 526.505ZM793.847 538.929L785.853 525.795L777.859 512.66H809.888L801.895 525.795L793.901 538.929H793.847ZM780.595 511.392L793.847 506.777L807.099 511.392H780.542H780.595ZM794.544 540.603L796.852 538.777L805.328 532.083L794.544 549.782V540.603ZM811.766 512.457L820.189 507.893L809.406 525.592L811.82 512.508L811.766 512.457ZM775.982 512.457L778.396 525.541L767.612 507.842L770.402 509.363L775.982 512.406V512.457ZM771.743 517.427L774.748 522.295L757.633 502.466L765.091 506.574L771.743 517.427ZM782.366 532.083L790.306 538.321L793.203 540.603V549.782L793.096 549.63L782.42 532.134L782.366 532.083ZM811.015 511.341L810.425 511.138L797.817 506.777H819.438L811.015 511.341ZM783.278 509.059L776.679 511.341L769.329 507.335L768.31 506.777H789.931L783.332 509.059H783.278ZM783.546 536.698L785.639 540.096L793.203 552.47V560.635L784.19 538.169L783.6 536.698H783.546ZM829.364 501.3L821.906 505.408H802.646L814.502 503.582L829.417 501.3H829.364ZM779.147 529.497L790.092 556.679L759.726 506.929L779.201 529.497H779.147ZM808.601 529.497L828.076 506.929L797.656 556.679L808.601 529.497ZM824.267 500.742L793.847 505.408L763.427 500.742H824.213H824.267Z" fill="#99A8BF"/>
<path opacity="0.1" d="M470.762 34.6315C470.762 34.6315 470.762 34.6315 470.762 34.5807V34.4793C470.762 34.4793 470.762 34.3779 470.762 34.3272C470.762 34.3272 470.762 34.3272 470.762 34.2765C470.762 34.2765 470.762 34.175 470.709 34.175C470.709 34.175 470.709 34.0736 470.655 34.0229L407.187 -46.0541C407.187 -46.0541 407.187 -46.0541 407.133 -46.1048C407.08 -46.1556 407.026 -46.2063 406.972 -46.257C406.972 -46.257 406.919 -46.3077 406.865 -46.3584C406.811 -46.3584 406.704 -46.4091 406.597 -46.4598C406.597 -46.4598 406.543 -46.4598 406.489 -46.4598C406.436 -46.4598 406.382 -46.4598 406.275 -46.4598C406.221 -46.4598 406.114 -46.4598 406.06 -46.4598C406.06 -46.4598 406.007 -46.4598 405.953 -46.4598C405.846 -46.4598 405.792 -46.4091 405.685 -46.3584C405.685 -46.3584 405.631 -46.3077 405.577 -46.257C405.524 -46.257 405.47 -46.1556 405.416 -46.1048C405.416 -46.1048 405.416 -46.1048 405.363 -46.0541L341.894 34.0229C341.894 34.0229 341.841 34.1243 341.841 34.175C341.841 34.175 341.841 34.2765 341.787 34.2765C341.787 34.2765 341.787 34.2765 341.787 34.3272C341.787 34.3272 341.787 34.4286 341.787 34.4793V34.5807C341.787 34.5807 341.787 34.5807 341.787 34.6315C341.787 34.6822 341.787 34.6315 341.787 34.6822V34.7836C341.787 34.7836 341.787 34.885 341.787 34.9357C341.787 34.9357 341.787 34.9357 341.787 34.9865C341.787 34.9865 341.787 35.0879 341.841 35.0879C341.841 35.0879 341.841 35.1893 341.894 35.24L405.363 115.317C405.47 115.418 405.524 115.52 405.685 115.571C405.685 115.571 405.738 115.571 405.792 115.571C405.846 115.571 405.953 115.621 406.007 115.621C406.114 115.621 406.221 115.621 406.328 115.621C406.436 115.621 406.543 115.621 406.65 115.621C406.704 115.621 406.811 115.621 406.865 115.571C406.865 115.571 406.919 115.571 406.972 115.571C407.08 115.52 407.187 115.418 407.294 115.317L470.762 35.24C470.762 35.24 470.816 35.1386 470.816 35.0879C470.816 35.0879 470.816 34.9865 470.87 34.9865C470.87 34.9865 470.87 34.9865 470.87 34.9357C470.87 34.9357 470.87 34.8343 470.87 34.7836V34.6822C470.87 34.6822 470.87 34.6822 470.87 34.6315H470.762ZM390.984 81.7446L383.044 65.7697L404.558 74.4925V108.876L391.038 81.7446H390.984ZM420.814 -12.4309L428.754 3.54393L407.241 -5.17884V-39.5628L420.76 -12.4309H420.814ZM435.943 34.6315L405.899 71.5004L375.855 34.6315L405.899 -2.23744L435.943 34.6315ZM435.139 29.4079L411.908 0.906811L410.245 -1.12174L430.364 7.04318L435.139 29.4587V29.4079ZM376.66 29.4079L381.435 6.99246L401.554 -1.17245L376.66 29.4079ZM376.66 39.9057L401.554 70.4861L381.435 62.3212L376.66 39.9057ZM435.139 39.9057L430.364 62.3212L410.245 70.4861L435.139 39.9057ZM373.012 33.3636H346.347L378.108 9.37601L373.012 33.3636ZM373.012 35.95L378.108 59.9376L346.347 35.95H373.012ZM438.787 35.95H465.451L433.69 59.9376L438.787 35.95ZM438.787 33.3636L433.69 9.37601L465.451 33.3636H438.787ZM404.504 -39.6135V-5.22955L382.991 3.49321L390.931 -12.4816L404.451 -39.6135H404.504ZM407.294 108.927V74.5432L428.808 65.8204L420.868 81.7953L407.348 108.927H407.294ZM439.914 10.6946L432.671 5.21748L425.911 -8.27238L412.874 -34.39L461.696 27.2273L439.86 10.6946H439.914ZM385.834 -8.27238L379.074 5.21748L371.831 10.6946L349.996 27.2273L398.817 -34.39L385.78 -8.27238H385.834ZM371.885 58.6191L379.128 64.0962L386.639 79.1074L398.871 103.704L350.049 42.0864L371.885 58.6191ZM425.16 79.1074L432.671 64.0962L439.914 58.6191L461.749 42.0864L412.927 103.704L425.16 79.1074Z" fill="#99A8BF"/>
<path opacity="0.1" d="M912.79 159.286C912.79 159.286 912.79 159.286 912.79 159.235V159.134C912.79 159.134 912.79 159.033 912.79 158.982C912.79 158.982 912.79 158.982 912.79 158.931C912.79 158.931 912.79 158.83 912.736 158.83C912.736 158.83 912.736 158.728 912.683 158.678L849.214 78.6005C849.214 78.6005 849.214 78.6005 849.161 78.5498C849.107 78.4991 849.053 78.4484 849 78.3977C849 78.3977 848.946 78.3469 848.892 78.2962C848.839 78.2962 848.731 78.2455 848.624 78.1948C848.624 78.1948 848.57 78.1948 848.517 78.1948C848.463 78.1948 848.409 78.1948 848.302 78.1948C848.248 78.1948 848.141 78.1948 848.088 78.1948C848.088 78.1948 848.034 78.1948 847.98 78.1948C847.873 78.1948 847.819 78.2455 847.712 78.2962C847.712 78.2962 847.658 78.3469 847.605 78.3977C847.551 78.3977 847.497 78.4991 847.444 78.5498C847.444 78.5498 847.444 78.5498 847.39 78.6005L783.922 158.678C783.922 158.678 783.868 158.779 783.868 158.83C783.868 158.83 783.868 158.931 783.814 158.931C783.814 158.931 783.814 158.931 783.814 158.982C783.814 158.982 783.814 159.083 783.814 159.134V159.235C783.814 159.235 783.814 159.235 783.814 159.286C783.814 159.337 783.814 159.286 783.814 159.337V159.438C783.814 159.438 783.814 159.54 783.814 159.59C783.814 159.59 783.814 159.59 783.814 159.641C783.814 159.641 783.815 159.743 783.868 159.743C783.868 159.743 783.868 159.844 783.922 159.895L847.39 239.972C847.497 240.073 847.551 240.175 847.712 240.225C847.712 240.225 847.766 240.225 847.819 240.225C847.873 240.225 847.98 240.276 848.034 240.276C848.141 240.276 848.248 240.276 848.356 240.276C848.463 240.276 848.57 240.276 848.678 240.276C848.731 240.276 848.839 240.276 848.892 240.225C848.892 240.225 848.946 240.225 849 240.225C849.107 240.175 849.214 240.073 849.322 239.972L912.79 159.895C912.79 159.895 912.843 159.793 912.843 159.743C912.843 159.743 912.843 159.641 912.897 159.641C912.897 159.641 912.897 159.641 912.897 159.59C912.897 159.59 912.897 159.489 912.897 159.438V159.337C912.897 159.337 912.897 159.337 912.897 159.286H912.79ZM833.012 206.399L825.072 190.424L846.585 199.147V233.531L833.065 206.399H833.012ZM862.841 112.173L870.782 128.148L849.268 119.425V85.0412L862.788 112.173H862.841ZM877.971 159.286L847.927 196.155L817.882 159.286L847.927 122.417L877.971 159.286ZM877.166 154.012L853.935 125.511L852.272 123.482L872.391 131.647L877.166 154.063V154.012ZM818.687 154.012L823.462 131.596L843.581 123.431L818.687 154.012ZM818.687 164.51L843.581 195.09L823.462 186.925L818.687 164.51ZM877.166 164.51L872.391 186.925L852.272 195.09L877.166 164.51ZM815.039 157.968H788.375L820.136 133.98L815.039 157.968ZM815.039 160.554L820.136 184.542L788.375 160.554H815.039ZM880.868 160.554H907.532L875.771 184.542L880.868 160.554ZM880.868 157.968L875.771 133.98L907.532 157.968H880.868ZM846.585 85.0412V119.425L825.072 128.148L833.012 112.173L846.532 85.0412H846.585ZM849.322 233.531V199.147L870.835 190.424L862.895 206.399L849.375 233.531H849.322ZM881.941 135.349L874.698 129.872L867.938 116.382L854.901 90.2647L903.723 151.882L881.887 135.349H881.941ZM827.861 116.332L821.101 129.821L813.859 135.298L792.023 151.831L840.845 90.214L827.808 116.332H827.861ZM813.912 183.223L821.155 188.7L828.666 203.711L840.898 228.308L792.077 166.69L813.912 183.223ZM867.241 203.711L874.752 188.7L881.995 183.223L903.83 166.69L855.008 228.308L867.241 203.711Z" fill="#99A8BF"/>
<path opacity="0.1" d="M138.67 512.964C138.67 512.964 138.67 512.964 138.67 512.913C138.67 512.913 138.67 512.862 138.67 512.812C138.67 512.812 138.67 512.761 138.67 512.71C138.67 512.71 138.67 512.66 138.67 512.609C138.67 512.609 138.67 512.558 138.616 512.507L93.121 455.099C93.121 455.099 93.0137 455.049 93.0137 454.998C93.0137 454.998 93.0136 454.998 92.96 454.947C92.9063 454.947 92.8527 454.947 92.799 454.897C92.799 454.897 92.7454 454.897 92.6917 454.897C92.6917 454.897 92.5844 454.897 92.5308 454.897C92.5308 454.897 92.4235 454.897 92.3698 454.897C92.3698 454.897 92.3162 454.897 92.2626 454.897C92.2089 454.897 92.1552 454.897 92.1016 454.947C92.1016 454.947 92.0479 454.947 91.9943 454.998C91.9943 454.998 91.887 455.049 91.887 455.099L46.3915 512.507C46.3915 512.507 46.3915 512.558 46.3379 512.609C46.3379 512.609 46.3379 512.66 46.3379 512.71C46.3379 512.71 46.3379 512.761 46.3379 512.812C46.3379 512.812 46.3379 512.862 46.3379 512.913C46.3379 512.913 46.3379 512.913 46.3379 512.964C46.3379 513.015 46.3379 512.964 46.3379 513.015C46.3379 513.015 46.3379 513.065 46.3379 513.116C46.3379 513.116 46.3379 513.167 46.3379 513.217C46.3379 513.217 46.3379 513.268 46.3379 513.319C46.3379 513.319 46.3379 513.37 46.3915 513.42L91.887 570.828C91.9406 570.879 91.9943 570.98 92.1016 571.031C92.1016 571.031 92.1016 571.031 92.1553 571.031C92.1553 571.031 92.2625 571.031 92.3162 571.082C92.3698 571.082 92.4771 571.082 92.5308 571.082C92.5844 571.082 92.6917 571.082 92.7454 571.082C92.7454 571.082 92.8527 571.082 92.9063 571.031C92.9063 571.031 92.9063 571.031 92.96 571.031C93.0136 571.031 93.1209 570.93 93.1746 570.828L138.67 513.42C138.67 513.42 138.67 513.37 138.724 513.319C138.724 513.319 138.724 513.268 138.724 513.217C138.724 513.217 138.724 513.167 138.724 513.116C138.724 513.116 138.724 513.065 138.724 513.015C138.724 513.015 138.724 513.015 138.724 512.964H138.67ZM81.4788 546.739L75.7919 535.278L91.1895 541.516V566.163L81.4788 546.688V546.739ZM102.885 479.239L108.572 490.7L93.1746 484.463V459.816L102.885 479.29V479.239ZM113.723 512.964L92.2089 539.386L70.6951 512.964L92.2089 486.542L113.723 512.964ZM113.133 509.211L96.4473 488.773L95.267 487.303L109.699 493.135L113.133 509.211ZM71.2316 509.211L74.6652 493.135L89.0972 487.303L71.2316 509.211ZM71.2316 516.717L89.0972 538.625L74.6652 532.793L71.2316 516.717ZM113.133 516.717L109.699 532.793L95.267 538.625L113.133 516.717ZM68.6028 512.051H49.5033L72.251 494.859L68.6028 512.051ZM68.6028 513.927L72.251 531.119L49.5033 513.927H68.6028ZM115.761 513.927H134.861L112.113 531.119L115.761 513.927ZM115.761 512.051L112.113 494.859L134.861 512.051H115.761ZM91.1895 459.765V484.412L75.7919 490.65L81.4788 479.188L91.1895 459.714V459.765ZM93.1746 566.213V541.566L108.572 535.329L102.885 546.79L93.1746 566.264V566.213ZM116.566 495.823L111.362 491.918L106.534 482.231L97.1984 463.518L132.232 507.69L116.566 495.823ZM77.8306 482.231L73.0021 491.918L67.798 495.823L52.1321 507.69L87.1658 463.518L77.8306 482.231ZM67.798 530.156L73.0021 534.061L78.3671 544.863L87.1658 562.46L52.1321 518.289L67.798 530.156ZM105.997 544.863L111.362 534.061L116.566 530.156L132.232 518.289L97.1984 562.46L105.997 544.863Z" fill="#99A8BF"/>
<path opacity="0.1" d="M66.9923 330.09C66.9923 330.09 66.9923 330.09 66.9923 330.039C66.9923 330.039 66.9923 329.989 66.9923 329.938C66.9923 329.938 66.9923 329.887 66.9923 329.837C66.9923 329.837 66.9923 329.786 66.9923 329.735C66.9923 329.735 66.9923 329.684 66.9387 329.634L21.4432 272.226C21.4432 272.226 21.3359 272.175 21.3359 272.124C21.3359 272.124 21.3359 272.124 21.2823 272.074C21.2286 272.074 21.175 272.074 21.1213 272.023C21.1213 272.023 21.0677 272.023 21.014 272.023C21.014 272.023 20.9067 272.023 20.8531 272.023C20.8531 272.023 20.7458 272.023 20.6921 272.023C20.6921 272.023 20.6385 272.023 20.5848 272.023C20.5312 272.023 20.4775 272.023 20.4239 272.074C20.4239 272.074 20.3702 272.074 20.3166 272.124C20.3166 272.124 20.2093 272.175 20.2093 272.226L-25.2862 329.634C-25.2862 329.634 -25.2862 329.684 -25.3398 329.735C-25.3398 329.735 -25.3398 329.786 -25.3398 329.837C-25.3398 329.837 -25.3398 329.887 -25.3398 329.938C-25.3398 329.938 -25.3398 329.989 -25.3398 330.039C-25.3398 330.039 -25.3398 330.039 -25.3398 330.09C-25.3398 330.141 -25.3398 330.09 -25.3398 330.141C-25.3398 330.141 -25.3398 330.192 -25.3398 330.242C-25.3398 330.242 -25.3398 330.293 -25.3398 330.344C-25.3398 330.344 -25.3398 330.394 -25.3398 330.445C-25.3398 330.445 -25.3399 330.496 -25.2862 330.547L20.2093 387.955C20.2629 388.005 20.3166 388.107 20.4239 388.157C20.4239 388.157 20.4239 388.157 20.4775 388.157C20.4775 388.157 20.5848 388.157 20.6385 388.208C20.6921 388.208 20.7994 388.208 20.8531 388.208C20.9067 388.208 21.014 388.208 21.0677 388.208C21.0677 388.208 21.175 388.208 21.2286 388.157C21.2286 388.157 21.2286 388.157 21.2823 388.157C21.3359 388.157 21.4432 388.056 21.4969 387.955L66.9923 330.547C66.9923 330.547 66.9923 330.496 67.046 330.445C67.046 330.445 67.046 330.394 67.046 330.344C67.046 330.344 67.046 330.293 67.046 330.242C67.046 330.242 67.046 330.192 67.046 330.141C67.046 330.141 67.046 330.141 67.046 330.09H66.9923ZM9.8011 363.815L4.11418 352.353L19.5118 358.591V383.238L9.8011 363.764V363.815ZM31.2076 296.315L36.8945 307.776L21.4969 301.538V276.891L31.2076 296.365V296.315ZM42.0449 330.09L20.5312 356.512L-0.982601 330.09L20.5312 303.668L42.0449 330.09ZM41.4548 326.337L24.7695 305.9L23.5892 304.429L38.0212 310.261L41.4548 326.337ZM-0.446106 326.287L2.98751 310.21L17.4195 304.378L-0.446106 326.287ZM-0.446106 333.843L17.4195 355.751L2.98751 349.919L-0.446106 333.843ZM41.4548 333.843L38.0212 349.919L23.5892 355.751L41.4548 333.843ZM-3.07496 329.127H-22.1745L0.573263 311.935L-3.07496 329.127ZM-3.07496 331.003L0.573263 348.195L-22.1745 331.003H-3.07496ZM44.0836 331.003H63.1832L40.4354 348.195L44.0836 331.003ZM44.0836 329.127L40.4354 311.935L63.1832 329.127H44.0836ZM19.5118 276.841V301.488L4.11418 307.725L9.8011 296.264L19.5118 276.79V276.841ZM21.4969 383.289V358.642L36.8945 352.404L31.2076 363.865L21.4969 383.34V383.289ZM44.8884 312.898L39.6843 308.993L34.8558 299.307L25.5206 280.593L60.5543 324.765L44.8884 312.898ZM6.15288 299.307L1.32436 308.993L-3.87972 312.898L-19.5456 324.765L15.488 280.593L6.15288 299.307ZM-3.87972 347.231L1.32436 351.136L6.68939 361.938L15.488 379.536L-19.5456 335.364L-3.87972 347.231ZM34.3193 361.938L39.6843 351.136L44.8884 347.231L60.5543 335.364L25.5206 379.536L34.3193 361.938Z" fill="#99A8BF"/>
<path opacity="0.1" d="M646.738 401.14C646.738 401.14 646.738 401.089 646.738 401.039C646.738 401.039 646.738 400.988 646.738 400.937C646.738 400.937 646.738 400.937 646.738 400.886C646.738 400.886 646.738 400.836 646.738 400.785L608.163 352.15C608.163 352.15 608.11 352.1 608.056 352.049C608.056 352.049 608.056 352.049 608.002 351.998C608.002 351.998 607.895 351.998 607.841 351.948C607.841 351.948 607.841 351.948 607.788 351.948H607.68H607.573C607.573 351.948 607.573 351.948 607.52 351.948C607.52 351.948 607.412 351.948 607.359 351.998C607.359 351.998 607.359 351.998 607.305 352.049C607.305 352.049 607.251 352.1 607.198 352.15L568.623 400.785C568.623 400.785 568.623 400.836 568.623 400.886C568.623 400.886 568.623 400.886 568.623 400.937C568.623 400.937 568.623 400.988 568.623 401.039C568.623 401.039 568.623 401.089 568.623 401.14C568.623 401.14 568.623 401.191 568.623 401.241C568.623 401.241 568.623 401.292 568.623 401.343C568.623 401.343 568.623 401.343 568.623 401.394C568.623 401.394 568.623 401.444 568.623 401.495L607.198 450.129C607.198 450.18 607.305 450.231 607.359 450.282C607.359 450.282 607.359 450.282 607.412 450.282H607.52C607.573 450.282 607.627 450.282 607.68 450.282C607.734 450.282 607.788 450.282 607.841 450.282H607.949C607.949 450.282 607.949 450.282 608.002 450.282C608.056 450.282 608.11 450.18 608.163 450.129L646.738 401.495C646.738 401.495 646.738 401.444 646.738 401.394C646.738 401.394 646.738 401.394 646.738 401.343C646.738 401.343 646.738 401.292 646.738 401.241C646.738 401.241 646.738 401.191 646.738 401.14ZM598.292 429.743L593.463 420.056L606.5 425.33V446.225L598.292 429.743ZM616.372 372.537L621.2 382.224L608.163 376.95V356.055L616.372 372.537ZM625.546 401.14L607.305 423.505L589.064 401.14L607.305 378.775L625.546 401.14ZM625.063 397.945L610.953 380.601L609.934 379.333L622.166 384.303L625.063 397.894V397.945ZM589.547 397.945L592.444 384.354L604.676 379.384L589.547 397.945ZM589.547 404.335L604.676 422.896L592.444 417.926L589.547 404.335ZM625.063 404.335L622.166 417.926L609.934 422.896L625.063 404.335ZM587.347 400.329H571.145L590.459 385.723L587.347 400.329ZM587.347 401.901L590.459 416.506L571.145 401.901H587.347ZM627.316 401.901H643.519L624.205 416.506L627.316 401.901ZM627.316 400.329L624.205 385.723L643.519 400.329H627.316ZM606.5 356.055V376.95L593.463 382.224L598.292 372.537L606.5 356.055ZM608.163 446.225V425.33L621.2 420.056L616.372 429.743L608.163 446.225ZM628.014 386.585L623.615 383.289L619.537 375.073L611.651 359.2L641.319 396.626L628.068 386.585H628.014ZM595.18 375.073L591.103 383.289L586.703 386.585L573.452 396.626L603.12 359.2L595.234 375.073H595.18ZM586.65 415.695L591.049 418.991L595.609 428.12L603.067 443.03L573.398 405.603L586.65 415.644V415.695ZM619.054 428.12L623.615 418.991L628.014 415.695L641.266 405.654L611.597 443.08L619.054 428.17V428.12Z" fill="#99A8BF"/>
<path opacity="0.1" d="M250.851 321.976C250.851 321.976 250.851 321.925 250.851 321.874L248.651 311.833C248.651 311.833 248.651 311.782 248.651 311.732L241.784 298.749C241.784 298.749 241.784 298.749 241.784 298.698L234.863 290.838C234.863 290.838 234.863 290.837 234.863 290.787L227.406 285.259C227.406 285.259 227.406 285.259 227.352 285.259C227.352 285.259 227.352 285.259 227.298 285.259C227.298 285.259 227.298 285.259 227.245 285.259C227.245 285.259 227.245 285.259 227.191 285.259C227.191 285.259 227.191 285.259 227.138 285.259C227.138 285.259 227.138 285.259 227.084 285.259L219.626 290.787C219.626 290.787 219.626 290.787 219.626 290.838L212.706 298.698C212.706 298.698 212.706 298.698 212.706 298.749L205.838 311.732C205.838 311.732 205.838 311.782 205.838 311.833L203.639 321.874C203.639 321.874 203.639 321.925 203.639 321.976L205.409 330.445C205.409 330.496 205.409 330.546 205.463 330.597L210.56 337.798C210.56 337.798 210.56 337.798 210.613 337.849L218.232 342.667C218.232 342.667 218.339 342.718 218.393 342.718L227.352 344.391C227.352 344.391 227.406 344.391 227.459 344.391C227.513 344.391 227.513 344.391 227.567 344.391L236.526 342.718C236.58 342.718 236.634 342.718 236.687 342.667L244.306 337.849C244.306 337.849 244.306 337.849 244.359 337.798L249.456 330.597C249.456 330.597 249.456 330.496 249.51 330.445L251.28 321.976H250.851ZM247.739 330.648L243.876 336.074L243.555 331.865L243.286 328.264H243.34L247.686 330.648H247.739ZM219.251 292.004L221.236 295.351L214.208 297.735L219.251 292.004ZM239.477 297.735L232.449 295.351L234.434 292.004L239.477 297.735ZM227.406 342.768V334.046L230.839 335.263L233.576 336.226L232.878 336.936L227.352 342.718L227.406 342.768ZM240.657 299.307L241.194 311.732L234.702 308.08L233.79 303.617L232.342 296.467L238.78 298.647L240.657 299.307ZM222.363 296.923L223.06 297.735L226.118 301.437L224.133 303.313L220.378 306.863L222.416 296.923H222.363ZM227.567 301.437L231.269 296.923L233.307 306.863L230.088 303.871L227.567 301.487V301.437ZM219.895 308.739L226.816 302.248L233.683 308.739L234.97 311.985L237.921 319.339L237.063 322.736L235.775 327.757L226.762 332.626L223.006 330.597L217.749 327.808V327.706L216.622 323.294L215.603 319.237L218.553 311.884L219.841 308.638L219.895 308.739ZM235.561 329.279L234.166 335.364L228.157 333.234L235.507 329.279H235.561ZM225.528 333.183L219.519 335.313L218.124 329.228L225.474 333.183H225.528ZM214.422 319.288L210.774 326.489L204.175 321.874L211.686 313.659L211.901 314.115L214.422 319.288ZM214.905 320.911L215.495 323.345L216.568 327.605L211.847 326.895L214.208 322.229L214.905 320.911ZM241.838 326.895L237.116 327.605L238.833 320.911L239.531 322.229L241.891 326.895H241.838ZM241.73 314.166L241.945 313.709L249.456 321.925L242.857 326.54L239.209 319.339L241.73 314.166ZM241.087 312.898L238.672 317.919L235.99 311.224L235.346 309.703L240.496 312.594L241.087 312.949V312.898ZM230.947 295.605L227.406 299.966V288.048L230.947 295.605ZM226.279 288.048V299.966L222.738 295.605L226.279 288.048ZM212.974 299.307L214.852 298.698L221.29 296.517L219.841 303.668L218.929 308.131L212.437 311.782L212.974 299.357V299.307ZM218.339 309.652L218.178 310.007L215.013 317.868L212.598 312.847L213.188 312.492L218.339 309.602V309.652ZM211.525 327.909L216.193 328.569L216.89 328.67L216.998 329.177L218.446 335.618L210.881 336.987L211.311 331.256L211.579 327.909H211.525ZM226.279 342.768L220.056 336.277L222.845 335.263L226.279 334.046V342.768ZM236.687 329.177L236.795 328.67L240.926 328.061L242.106 327.909L242.374 331.256L242.803 336.987L235.239 335.618L236.687 329.177ZM245.54 311.681L242.374 312.087V310.971L241.891 301.335L247.256 311.427L245.54 311.63V311.681ZM231.912 294.032L231.644 294.438L228.264 287.237L233.576 291.193L231.912 294.032ZM211.311 312.087L208.145 311.681L206.429 311.478L211.794 301.386L211.311 312.087ZM210.291 328.315H210.345L210.077 331.865L209.755 336.074L205.892 330.648L210.238 328.315H210.291ZM219.412 337.241L221.182 339.117L225.206 343.326L218.446 342.058L219.358 337.241H219.412ZM232.61 338.914L234.219 337.241L235.131 342.058L228.371 343.326L232.61 338.914ZM242.964 313.101L247.686 312.492L249.349 320.049L242.964 313.05V313.101ZM225.367 287.288L221.987 294.489L220.056 291.243L225.367 287.288ZM205.999 312.492L210.721 313.101L204.336 320.099L205.999 312.543V312.492ZM209.969 327.25L205.999 329.38L205.57 329.634L204.229 323.193L210.023 327.25H209.969ZM213.725 337.596L218.339 336.784L217.427 341.602L211.686 337.951L213.725 337.596ZM236.204 341.602L235.292 336.784L239.906 337.596L241.945 337.951L236.204 341.602ZM248.115 329.634L247.686 329.38L243.715 327.25L249.51 323.193L248.168 329.634H248.115Z" fill="#99A8BF"/>
<path opacity="0.1" d="M564.868 119.983C564.868 119.932 564.868 119.881 564.868 119.831L561.434 104.312C561.434 104.312 561.434 104.211 561.38 104.211C561.38 104.211 561.38 104.16 561.38 104.11L550.758 83.9762C550.758 83.9762 550.758 83.9254 550.704 83.8747L540.028 71.7541C540.028 71.7541 540.028 71.7034 539.974 71.6527L528.385 63.0821C528.385 63.0821 528.386 63.0821 528.332 63.0821C528.332 63.0821 528.278 63.0821 528.225 63.0821C528.225 63.0821 528.225 63.0821 528.171 63.0821C528.171 63.0821 528.171 63.0821 528.117 63.0821C528.117 63.0821 528.064 63.0821 528.01 63.0821H527.903C527.903 63.0821 527.849 63.0821 527.795 63.0821C527.795 63.0821 527.742 63.0821 527.688 63.0821C527.688 63.0821 527.634 63.0821 527.581 63.0821C527.581 63.0821 527.581 63.0821 527.527 63.0821L515.939 71.6527C515.939 71.6527 515.939 71.7034 515.885 71.7541L505.209 83.8747C505.209 83.8747 505.209 83.9254 505.155 83.9762L494.532 104.11V104.16C494.532 104.16 494.532 104.262 494.479 104.262L491.045 119.78C491.045 119.78 491.045 119.881 491.045 119.932L493.781 133.067C493.781 133.067 493.781 133.067 493.781 133.118C493.781 133.219 493.781 133.27 493.888 133.371L501.775 144.528C501.775 144.528 501.829 144.579 501.882 144.63L513.632 152.085C513.739 152.135 513.793 152.186 513.9 152.186L527.795 154.773C527.795 154.773 527.903 154.773 527.956 154.773C528.01 154.773 528.064 154.773 528.117 154.773L542.013 152.186C542.12 152.186 542.227 152.135 542.281 152.085L554.03 144.63C554.03 144.63 554.084 144.579 554.138 144.528L562.024 133.371C562.024 133.371 562.078 133.219 562.132 133.118C562.132 133.118 562.132 133.118 562.132 133.067L564.868 119.932V119.983ZM559.986 133.321L554.03 141.739L553.547 135.197L553.118 129.669H553.226L559.986 133.321ZM515.992 73.6306L519.05 78.8034L508.159 82.5055L515.992 73.6306ZM547.217 82.5055L536.326 78.8034L539.384 73.6306L547.217 82.5055ZM528.6 152.085V138.646L533.911 140.522L538.204 142.043L537.131 143.159L528.6 152.085ZM549.095 84.889L549.953 104.11L539.974 98.4803L538.579 91.5832L536.326 80.5276L546.251 83.8747L549.148 84.889H549.095ZM520.821 81.1869L521.84 82.4547L526.561 88.1854L523.503 91.0761L517.709 96.5532L520.874 81.2376L520.821 81.1869ZM528.868 88.1854L534.609 81.1869L537.774 96.5025L532.838 91.8368L528.922 88.1347L528.868 88.1854ZM517.012 99.4439L527.688 89.4025H527.742L538.364 99.4439L540.403 104.465L544.963 115.824L543.622 121.048L541.637 128.858C541.637 128.858 541.637 128.858 541.637 128.909V129.01L527.688 136.465L521.84 133.321L513.739 129.01V128.858L512.022 122.062L510.413 115.824L514.973 104.465L517.012 99.4439ZM541.154 131.191L539.062 140.573L529.78 137.276L541.208 131.191H541.154ZM525.649 137.327L516.368 140.623L514.276 131.241L525.703 137.327H525.649ZM508.535 115.824L502.902 126.931L492.654 119.78L504.297 107.102L504.672 107.862L508.535 115.824ZM509.232 118.259L510.198 122.011L511.861 128.604L504.565 127.539L508.213 120.338L509.232 118.309V118.259ZM550.865 127.539L543.569 128.604L546.197 118.259L547.217 120.287L550.865 127.489V127.539ZM550.758 107.862L551.133 107.102L562.775 119.78L552.528 126.931L546.895 115.824L550.758 107.862ZM549.738 105.935L545.983 113.694L541.798 103.298L540.832 100.915L548.773 105.377L549.685 105.884L549.738 105.935ZM534.072 79.1584L528.546 85.8526V67.4435L534.072 79.1076V79.1584ZM526.83 67.4435V85.8526L521.304 79.1584L526.83 67.4942V67.4435ZM506.282 84.889L509.179 83.9254L519.158 80.5276L516.904 91.5832L515.509 98.4803L505.53 104.11L506.389 84.889H506.282ZM514.544 100.915L514.329 101.523L509.447 113.694L505.691 105.935L506.603 105.428L514.544 100.965V100.915ZM504.028 129.162L511.217 130.176L512.237 130.329L512.398 131.089L514.651 141.08L502.955 143.21L503.599 134.386L503.975 129.162H504.028ZM526.83 152.085L517.226 142.043L521.572 140.522L526.83 138.646V152.085ZM542.978 131.089L543.139 130.329L549.524 129.416L551.348 129.162L551.723 134.386L552.367 143.21L540.671 141.08L542.925 131.089H542.978ZM556.606 104.059L551.723 104.667V102.943L551.026 88.084L559.288 103.704L556.659 104.008L556.606 104.059ZM535.575 76.7241L535.199 77.3834L529.941 66.2771L538.15 72.3627L535.575 76.7241ZM503.706 104.667L498.824 104.059L496.195 103.755L504.457 88.1347L503.76 104.718L503.706 104.667ZM502.15 129.72H502.258L501.829 135.197L501.346 141.739L495.391 133.321L502.15 129.72ZM516.261 143.514L519.05 146.405L525.274 152.947L514.812 150.969L516.261 143.514ZM536.648 146.151L539.169 143.565L540.618 151.02L530.156 152.998L536.701 146.202L536.648 146.151ZM552.582 106.189L559.878 105.276L562.453 116.94L552.582 106.138V106.189ZM525.488 66.2771L520.231 77.3834L517.28 72.3627L525.488 66.2771ZM495.498 105.327L502.794 106.239L492.923 117.042L495.498 105.377V105.327ZM501.668 128.097L495.498 131.394L494.8 131.749L492.708 121.809L501.668 128.046V128.097ZM507.462 144.072L514.651 142.804L513.202 150.31L504.297 144.681L507.462 144.123V144.072ZM542.227 150.259L540.779 142.753L547.968 144.021L551.133 144.579L542.227 150.208V150.259ZM560.629 131.799L559.932 131.444L553.762 128.148L562.722 121.91L560.629 131.85V131.799Z" fill="#99A8BF"/>
<path opacity="0.1" d="M898.52 372.69C898.52 372.639 898.52 372.588 898.52 372.538L895.086 357.019C895.086 357.019 895.086 356.918 895.033 356.918C895.033 356.918 895.033 356.867 895.033 356.816L884.41 336.683C884.41 336.683 884.41 336.632 884.356 336.582L873.68 324.461C873.68 324.461 873.68 324.41 873.626 324.36L862.038 315.789C862.038 315.789 862.038 315.789 861.984 315.789C861.984 315.789 861.931 315.789 861.877 315.789C861.877 315.789 861.877 315.789 861.823 315.789C861.823 315.789 861.823 315.789 861.77 315.789C861.77 315.789 861.716 315.789 861.662 315.789H861.555C861.555 315.789 861.501 315.789 861.448 315.789C861.448 315.789 861.394 315.789 861.34 315.789C861.34 315.789 861.287 315.789 861.233 315.789C861.233 315.789 861.233 315.789 861.179 315.789L849.591 324.36C849.591 324.36 849.591 324.41 849.537 324.461L838.861 336.582C838.861 336.582 838.861 336.632 838.807 336.683L828.185 356.816V356.867C828.185 356.867 828.185 356.968 828.131 356.968L824.697 372.487C824.697 372.487 824.697 372.588 824.697 372.639L827.433 385.774C827.433 385.774 827.433 385.774 827.433 385.825C827.433 385.926 827.433 385.977 827.541 386.078L835.427 397.184C835.427 397.184 835.481 397.235 835.535 397.286L847.284 404.741C847.391 404.792 847.445 404.842 847.552 404.842L861.448 407.429C861.448 407.429 861.555 407.429 861.609 407.429C861.662 407.429 861.716 407.429 861.77 407.429L875.665 404.842C875.772 404.842 875.88 404.792 875.933 404.741L887.683 397.286C887.683 397.286 887.736 397.235 887.79 397.184L895.677 386.078C895.677 386.078 895.73 385.926 895.784 385.825C895.784 385.825 895.784 385.825 895.784 385.774L898.52 372.639V372.69ZM893.638 386.078L887.683 394.497L887.2 387.955L886.771 382.427H886.878L893.638 386.078ZM849.645 326.337L852.703 331.51L841.812 335.212L849.645 326.337ZM880.869 335.212L869.978 331.51L873.036 326.337L880.869 335.212ZM862.252 404.842V391.403L867.564 393.279L871.856 394.801L870.783 395.917L862.252 404.842ZM882.747 337.596L883.605 356.816L873.626 351.187L872.231 344.29L869.978 333.234L879.903 336.582L882.8 337.596H882.747ZM854.473 333.894L855.492 335.162L860.214 340.892L857.156 343.783L851.361 349.26L854.527 333.944L854.473 333.894ZM862.521 340.892L868.261 333.894L871.427 349.209L866.491 344.544L862.574 340.841L862.521 340.892ZM850.664 352.201L861.34 342.16H861.394L872.017 352.201L874.056 357.222L878.616 368.582L877.274 373.805L875.289 381.615C875.289 381.615 875.289 381.615 875.289 381.666V381.767L861.34 389.222L855.492 386.078L847.391 381.767V381.615L845.674 374.82L844.065 368.582L848.625 357.222L850.664 352.201ZM874.807 383.948L872.714 393.33L863.433 390.034L874.86 383.948H874.807ZM859.302 390.034L850.02 393.33L847.928 383.948L859.355 390.034H859.302ZM842.187 368.531L836.554 379.638L826.307 372.487L837.949 359.808L838.324 360.569L842.187 368.531ZM842.885 371.016L843.85 374.769L845.514 381.362L838.217 380.297L841.865 373.095L842.885 371.016ZM884.517 380.246L877.221 381.311L879.85 370.965L880.869 373.045L884.517 380.246ZM884.41 360.569L884.786 359.808L896.428 372.487L886.18 379.638L880.547 368.531L884.41 360.569ZM883.391 358.642L879.635 366.401L875.45 356.005L874.485 353.621L882.425 358.084L883.337 358.591L883.391 358.642ZM867.725 331.865L862.199 338.559V320.15L867.725 331.814V331.865ZM860.482 320.201V338.61L854.956 331.916L860.482 320.252V320.201ZM839.988 337.596L842.885 336.632L852.864 333.234L850.61 344.29L849.215 351.187L839.236 356.816L840.095 337.596H839.988ZM848.196 353.621L847.981 354.23L843.099 366.401L839.344 358.642L840.256 358.135L848.196 353.672V353.621ZM837.681 381.869L844.87 382.883L845.889 383.035L846.05 383.796L848.303 393.787L836.608 395.917L837.251 387.092L837.627 381.869H837.681ZM860.482 404.842L850.879 394.801L855.224 393.279L860.482 391.403V404.842ZM876.631 383.847L876.792 383.086L883.176 382.173L885 381.92L885.376 387.143L886.02 395.967L874.324 393.837L876.577 383.847H876.631ZM890.258 356.766L885.376 357.374V355.65L884.678 340.791L892.94 356.411L890.312 356.715L890.258 356.766ZM869.227 329.482L868.851 330.141L863.594 319.035L871.802 325.12L869.227 329.482ZM837.359 357.374L832.477 356.766L829.848 356.461L838.11 340.841L837.412 357.425L837.359 357.374ZM835.803 382.477H835.91L835.481 387.955L834.998 394.497L829.043 386.078L835.803 382.477ZM849.913 396.272L852.703 399.162L858.926 405.704L848.464 403.727L849.913 396.272ZM870.3 398.858L872.822 396.272L874.27 403.727L863.808 405.704L870.354 398.909L870.3 398.858ZM886.234 358.946L893.531 358.033L896.106 369.698L886.234 358.896V358.946ZM859.141 319.035L853.883 330.141L850.932 325.12L859.141 319.035ZM829.15 358.033L836.447 358.946L826.575 369.748L829.15 358.084V358.033ZM835.32 380.804L829.15 384.1L828.453 384.455L826.36 374.515L835.32 380.753V380.804ZM841.114 396.779L848.303 395.511L846.855 403.017L837.949 397.387L841.114 396.829V396.779ZM875.88 402.966L874.431 395.46L881.62 396.728L884.786 397.286L875.88 402.915V402.966ZM894.282 384.506L893.584 384.151L887.414 380.855L896.374 374.617L894.282 384.557V384.506Z" fill="#99A8BF"/>
<path opacity="0.1" d="M828.665 -13.6985C828.665 -13.6985 828.665 -13.7492 828.665 -13.7999L826.466 -23.8413C826.466 -23.8413 826.466 -23.892 826.466 -23.9427L819.598 -36.9254C819.598 -36.9254 819.598 -36.9254 819.598 -36.9761L812.678 -44.8368C812.678 -44.8368 812.678 -44.8368 812.678 -44.8875L805.22 -50.4153C805.22 -50.4153 805.22 -50.4153 805.167 -50.4153C805.167 -50.4153 805.167 -50.4153 805.113 -50.4153C805.113 -50.4153 805.113 -50.4153 805.059 -50.4153C805.059 -50.4153 805.059 -50.4153 805.006 -50.4153C805.006 -50.4153 805.006 -50.4153 804.952 -50.4153C804.952 -50.4153 804.952 -50.4153 804.898 -50.4153L797.441 -44.8875C797.441 -44.8875 797.441 -44.8875 797.441 -44.8368L790.52 -36.9761C790.52 -36.9761 790.52 -36.9761 790.52 -36.9254L783.653 -23.9427C783.653 -23.9427 783.653 -23.892 783.653 -23.8413L781.453 -13.7999C781.453 -13.7999 781.453 -13.7492 781.453 -13.6985L783.224 -5.22932C783.224 -5.17861 783.224 -5.1279 783.277 -5.07719L788.374 2.12417C788.374 2.12417 788.374 2.12417 788.428 2.17488L796.046 6.99269C796.1 6.99269 796.153 7.0434 796.207 7.0434L805.167 8.71696C805.167 8.71696 805.22 8.71696 805.274 8.71696C805.328 8.71696 805.328 8.71696 805.381 8.71696L814.341 7.0434C814.394 7.0434 814.448 7.0434 814.502 6.99269L822.12 2.17488C822.12 2.17488 822.12 2.17488 822.174 2.12417L827.271 -5.07719C827.271 -5.07719 827.271 -5.17861 827.324 -5.22932L829.095 -13.6985H828.665ZM825.5 -5.07719L821.637 0.349186L821.315 -3.86006L821.047 -7.46073H821.101L825.446 -5.07719H825.5ZM797.065 -43.6704L799.05 -40.3232L792.022 -37.9397L797.065 -43.6704ZM817.238 -37.9397L810.21 -40.3232L812.195 -43.6704L817.238 -37.9397ZM805.167 7.09412V-1.62865L808.6 -0.411518L811.336 0.55204L810.639 1.26204L805.113 7.0434L805.167 7.09412ZM818.472 -36.4183L819.008 -23.9934L812.517 -27.6448L811.605 -32.1076L810.156 -39.2583L816.594 -37.0776L818.472 -36.4183ZM800.177 -38.8018L800.875 -37.9904L803.933 -34.2883L801.948 -32.4119L798.192 -28.8619L800.231 -38.8018H800.177ZM805.381 -34.2376L809.083 -38.7511L811.122 -28.8112L807.903 -31.8033L805.381 -34.1869V-34.2376ZM797.709 -26.9855L804.63 -33.4769L811.497 -26.9855L812.785 -23.7398L815.736 -16.3863L814.877 -12.9885L813.59 -7.96787L804.576 -3.09935L800.821 -5.1279L795.563 -7.91715V-8.01858L794.437 -12.4307L793.417 -16.4878L796.368 -23.8413L797.656 -27.087L797.709 -26.9855ZM813.321 -6.44645L811.927 -0.360806L805.918 -2.49078L813.268 -6.44645H813.321ZM803.289 -2.49078L797.28 -0.360806L795.885 -6.44645L803.235 -2.49078H803.289ZM792.237 -16.3863L788.589 -9.185L781.99 -13.7999L789.501 -22.0156L789.715 -21.5592L792.237 -16.3863ZM792.666 -14.8142L793.256 -12.38L794.329 -8.12001L789.608 -8.83L791.969 -13.4957L792.666 -14.8142ZM819.598 -8.77929L814.877 -8.0693L816.594 -14.7635L817.292 -13.445L819.652 -8.77929H819.598ZM819.545 -21.5592L819.759 -22.0156L827.271 -13.7999L820.672 -9.185L817.023 -16.3863L819.545 -21.5592ZM818.901 -22.7763L816.487 -17.7556L813.804 -24.4498L813.16 -25.9713L818.311 -23.0806L818.901 -22.7256V-22.7763ZM808.761 -40.1204L805.22 -35.759V-47.6767L808.761 -40.1204ZM804.04 -47.6767V-35.759L800.499 -40.1204L804.04 -47.6767ZM790.788 -36.4183L792.666 -37.0268L799.104 -39.2075L797.656 -32.0569L796.743 -27.5941L790.252 -23.9427L790.788 -36.3676V-36.4183ZM796.1 -26.022L795.939 -25.667L792.773 -17.8063L790.359 -22.827L790.949 -23.182L796.1 -26.0727V-26.022ZM789.34 -7.76501L794.007 -7.10573L794.705 -7.00431L794.812 -6.49717L796.261 -0.0565262L788.696 1.31275L789.125 -4.41791L789.393 -7.76501H789.34ZM804.04 7.09412L797.816 0.602757L800.606 -0.411518L804.04 -1.62865V7.09412ZM814.502 -6.49717L814.609 -7.00431L818.74 -7.61287L819.92 -7.76501L820.189 -4.41791L820.618 1.31275L813.053 -0.0565262L814.502 -6.49717ZM823.3 -23.9934L820.135 -23.5877V-24.7034L819.652 -34.339L825.017 -24.247L823.3 -24.0441V-23.9934ZM809.727 -41.6418L809.459 -41.2361L806.079 -48.4374L811.39 -44.4818L809.727 -41.6418ZM789.072 -23.5877L785.906 -23.9934L784.189 -24.1963L789.554 -34.2883L789.072 -23.5877ZM788.106 -7.41002H788.159L787.891 -3.86006L787.569 0.349186L783.707 -5.07719L788.052 -7.41002H788.106ZM797.226 1.51561L798.997 3.39201L803.021 7.60125L796.261 6.33341L797.173 1.51561H797.226ZM810.424 3.23987L812.034 1.56632L812.946 6.38412L806.186 7.65197L810.424 3.23987ZM820.725 -22.6241L825.446 -23.2327L827.11 -15.6764L820.725 -22.6749V-22.6241ZM803.182 -48.4374L799.802 -41.2361L797.87 -44.4818L803.182 -48.4374ZM783.814 -23.182L788.535 -22.5734L782.151 -15.5749L783.814 -23.1313V-23.182ZM787.784 -8.42429L783.814 -6.29432L783.385 -6.04074L782.043 -12.4814L787.838 -8.42429H787.784ZM791.539 1.8706L796.153 1.05918L795.241 5.87699L789.501 2.2256L791.539 1.8706ZM814.019 5.87699L813.107 1.05918L817.721 1.8706L819.759 2.2256L814.019 5.87699ZM825.929 -6.04074L825.5 -6.29432L821.53 -8.42429L827.324 -12.4814L825.983 -6.04074H825.929Z" fill="#99A8BF"/>
<path opacity="0.1" d="M19.4593 14.8026C19.4593 14.8026 19.4593 14.7519 19.4593 14.7012L17.2596 4.65988C17.2596 4.65988 17.2596 4.60916 17.2596 4.55845L10.3924 -8.47499C10.3924 -8.47499 10.3924 -8.47499 10.3924 -8.5257L3.47147 -16.3863C3.47147 -16.3863 3.47147 -16.3863 3.47147 -16.437L-3.98592 -21.9648C-3.98592 -21.9648 -3.98591 -21.9648 -4.03956 -21.9648C-4.03956 -21.9648 -4.03957 -21.9648 -4.09322 -21.9648C-4.09322 -21.9648 -4.09322 -21.9648 -4.20052 -21.9648C-4.20052 -21.9648 -4.20051 -21.9648 -4.25416 -21.9648C-4.25416 -21.9648 -4.25415 -21.9648 -4.3078 -21.9648C-4.3078 -21.9648 -4.30782 -21.9648 -4.36147 -21.9648L-11.8189 -16.437C-11.8189 -16.437 -11.8189 -16.437 -11.8189 -16.3863L-18.7397 -8.5257C-18.7397 -8.5257 -18.7397 -8.5257 -18.7397 -8.47499L-25.607 4.55845C-25.607 4.55845 -25.607 4.60916 -25.607 4.65988L-27.8066 14.7012C-27.8066 14.7012 -27.8066 14.7519 -27.8066 14.8026L-26.0362 23.2718C-26.0362 23.3225 -26.0362 23.3733 -25.9825 23.424L-20.8857 30.6253C-20.8857 30.6253 -20.8858 30.6253 -20.8321 30.676L-13.2138 35.4938C-13.1601 35.4938 -13.1065 35.5446 -13.0528 35.5446L-4.09322 37.2181C-4.09322 37.2181 -4.03957 37.2181 -3.98592 37.2181C-3.93227 37.2181 -3.93226 37.2181 -3.87861 37.2181L5.081 35.5446C5.13465 35.5446 5.18829 35.5446 5.24194 35.4938L12.8603 30.676C12.8603 30.676 12.8603 30.676 12.9139 30.6253L18.0107 23.424C18.0107 23.424 18.0107 23.3225 18.0644 23.2718L19.8348 14.8026H19.4593ZM16.3476 23.4747L12.4847 28.9011L12.1628 24.6918L11.8946 21.0911H11.9482L16.2939 23.4747H16.3476ZM-12.1408 -15.1692L-10.1557 -11.8221L-17.1839 -9.43855L-12.1408 -15.1692ZM8.0854 -9.43855L1.05723 -11.8221L3.04228 -15.1692L8.0854 -9.43855ZM-3.98592 35.5953V26.8725L-0.552299 28.0896L2.23752 29.0532L1.54006 29.7632L-3.98592 35.5446V35.5953ZM9.26571 -7.86642L9.80221 4.55845L3.31053 0.907061L2.39848 -3.55575L0.949923 -10.7064L7.38794 -8.5257L9.26571 -7.86642ZM-9.02904 -10.25L-8.33158 -9.43855L-5.27351 -5.73644L-7.25859 -3.86003L-11.0141 -0.310068L-8.9754 -10.25H-9.02904ZM-3.82497 -5.73644L-0.123087 -10.25L1.91563 -0.310068L-1.3034 -3.30218L-3.82497 -5.68573V-5.73644ZM-11.4969 1.56634L-4.57607 -4.92502L2.29118 1.56634L3.57878 4.81202L6.52954 12.1655L5.67113 15.5633L4.38354 20.584L-4.62971 25.4525L-8.38524 23.424L-13.643 20.6347V20.5333L-14.7696 16.1212L-15.789 12.0641L-12.8382 4.71059L-11.5506 1.46491L-11.4969 1.56634ZM4.16893 22.1054L2.77403 28.1911L-3.23482 26.0611L4.11529 22.1054H4.16893ZM-5.86367 26.0104L-11.8725 28.1403L-13.2674 22.0547L-5.86367 26.0104ZM-16.9693 12.1148L-20.6175 19.3162L-27.2165 14.7012L-19.7055 6.48557L-19.4908 6.942L-16.9693 12.1148ZM-16.4864 13.7376L-15.8963 16.1719L-14.8233 20.4319L-19.5445 19.7726L-17.1839 15.1069L-16.4864 13.7884V13.7376ZM10.446 19.7219L5.7248 20.3811L7.4416 13.6869L8.13906 15.0055L10.4997 19.6711L10.446 19.7219ZM10.3387 6.99271L10.5533 6.53629L18.0644 14.7519L11.4654 19.3669L7.81715 12.1655L10.3387 6.99271ZM9.69491 5.72487L7.28066 10.7455L4.59814 4.05131L3.95433 2.5299L9.10477 5.42058L9.69491 5.77558V5.72487ZM-0.444996 -11.6192L-3.98592 -7.25786V-19.1756L-0.444996 -11.6192ZM-5.11257 -19.1756V-7.25786L-8.65349 -11.6192L-5.11257 -19.1756ZM-18.4178 -7.86642L-16.5401 -8.47499L-10.102 -10.6557L-11.5506 -3.50504L-12.4627 0.957775L-18.9544 4.60916L-18.4178 -7.81571V-7.86642ZM-13.0528 2.47918L-13.2138 2.83418L-16.3791 10.6948L-18.7934 5.67415L-18.2032 5.31916L-13.0528 2.42847V2.47918ZM-19.8664 20.7361L-15.1988 21.3954L-14.5014 21.4968L-14.3941 22.004L-12.9455 28.4446L-20.5102 29.8139L-20.081 24.0832L-19.8128 20.7361H-19.8664ZM-5.11257 35.5953L-11.336 29.1039L-8.54618 28.0896L-5.11257 26.8725V35.5953ZM5.29558 22.004L5.40289 21.4968L9.53396 20.8883L10.7143 20.7361L10.9825 24.0832L11.4117 29.8139L3.84702 28.4446L5.29558 22.004ZM14.1479 4.50774L10.9825 4.91345V3.79774L10.4997 -5.83787L15.8647 4.25417L14.1479 4.45702V4.50774ZM0.52071 -13.1407L0.252462 -12.7349L-3.12751 -19.9363L2.18388 -15.9806L0.52071 -13.1407ZM-20.081 4.91345L-23.2464 4.50774L-24.9632 4.30488L-19.5982 -5.78716L-20.081 4.91345ZM-21.1004 21.1418H-21.0467L-21.315 24.6918L-21.6369 28.9011L-25.4997 23.4747L-21.154 21.1418H-21.1004ZM-11.9798 30.0675L-10.2093 31.9439L-6.18558 36.1531L-12.9455 34.8853L-12.0335 30.0675H-11.9798ZM1.21817 31.741L2.82767 30.0675L3.73974 34.8853L-3.02021 36.1531L1.21817 31.741ZM11.519 5.92772L16.2402 5.31916L17.9034 12.8755L11.519 5.87701V5.92772ZM-6.02463 -19.8856L-9.40459 -12.6842L-11.336 -15.9299L-6.02463 -19.8856ZM-25.3924 5.31916L-20.6712 5.92772L-27.0555 12.9262L-25.3924 5.36987V5.31916ZM-21.4223 20.0769L-25.3924 22.2068L-25.8216 22.4604L-27.1628 16.0198L-21.3686 20.0769H-21.4223ZM-17.6667 30.3717L-13.0528 29.5603L-13.9649 34.3781L-19.7055 30.7267L-17.6667 30.3717ZM4.81273 34.3781L3.90068 29.5603L8.51461 30.3717L10.5533 30.7267L4.81273 34.3781ZM16.7231 22.4604L16.2939 22.2068L12.3238 20.0769L18.118 16.0198L16.7767 22.4604H16.7231Z" fill="#99A8BF"/>
<path opacity="0.1" d="M664.333 527.519C664.333 527.519 664.333 527.468 664.333 527.417L662.134 517.376C662.134 517.376 662.134 517.325 662.134 517.275L655.266 504.292C655.266 504.292 655.266 504.292 655.266 504.241L648.346 496.381C648.346 496.381 648.346 496.38 648.346 496.33L640.888 490.802C640.888 490.802 640.888 490.802 640.835 490.802C640.835 490.802 640.835 490.802 640.781 490.802C640.781 490.802 640.781 490.802 640.727 490.802C640.727 490.802 640.727 490.802 640.674 490.802C640.674 490.802 640.674 490.802 640.62 490.802C640.62 490.802 640.62 490.802 640.566 490.802L633.109 496.33C633.109 496.33 633.109 496.33 633.109 496.381L626.188 504.241C626.188 504.241 626.188 504.241 626.188 504.292L619.321 517.275C619.321 517.275 619.321 517.325 619.321 517.376L617.121 527.417C617.121 527.417 617.121 527.468 617.121 527.519L618.892 535.988C618.892 536.039 618.892 536.089 618.945 536.14L624.042 543.341C624.042 543.341 624.042 543.341 624.096 543.392L631.714 548.21C631.768 548.21 631.821 548.261 631.875 548.261L640.835 549.934C640.835 549.934 640.888 549.934 640.942 549.934C640.995 549.934 640.995 549.934 641.049 549.934L650.009 548.261C650.062 548.261 650.116 548.261 650.17 548.21L657.788 543.392C657.788 543.392 657.788 543.392 657.842 543.341L662.938 536.14C662.938 536.14 662.938 536.039 662.992 535.988L664.763 527.519H664.333ZM661.222 536.14L657.359 541.566L657.037 537.357L656.769 533.757H656.822L661.168 536.14H661.222ZM632.733 497.496L634.718 500.843L627.69 503.227L632.733 497.496ZM652.959 503.278L645.931 500.894L647.916 497.547L652.959 503.278ZM640.888 548.261V539.538L644.322 540.755L647.058 541.719L646.36 542.429L640.835 548.21L640.888 548.261ZM654.14 504.799L654.676 517.224L648.185 513.572L647.273 509.11L645.824 501.959L652.262 504.14L654.14 504.799ZM635.845 502.415L636.542 503.227L639.601 506.929L637.615 508.805L633.86 512.355L635.899 502.415H635.845ZM641.049 506.929L644.751 502.415L646.79 512.355L643.571 509.363L641.049 506.98V506.929ZM633.377 514.232L640.298 507.74L647.165 514.232L648.453 517.477L651.404 524.831L650.545 528.229L649.258 533.249L640.244 538.118L636.489 536.089L631.231 533.3V533.199L630.104 528.787L629.085 524.73L632.036 517.376L633.323 514.13L633.377 514.232ZM649.043 534.771L647.648 540.856L641.639 538.726L648.989 534.771H649.043ZM639.01 538.726L633.002 540.856L631.607 534.771L638.957 538.726H639.01ZM627.905 524.831L624.257 532.032L617.658 527.417L625.169 519.202L625.383 519.658L627.905 524.831ZM628.388 526.403L628.978 528.837L630.051 533.097L625.33 532.387L627.69 527.722L628.388 526.403ZM655.32 532.387L650.599 533.097L652.316 526.403L653.013 527.722L655.374 532.387H655.32ZM655.213 519.658L655.427 519.202L662.938 527.417L656.339 532.032L652.691 524.831L655.213 519.658ZM654.569 518.39L652.155 523.411L649.472 516.717L648.828 515.195L653.979 518.086L654.569 518.441V518.39ZM644.429 501.097L640.888 505.458V493.541L644.429 501.097ZM639.762 493.541V505.458L636.221 501.097L639.762 493.541ZM626.456 504.799L628.334 504.19L634.772 502.01L633.323 509.16L632.411 513.623L625.92 517.275L626.456 504.85V504.799ZM631.821 515.195L631.66 515.55L628.495 523.411L626.081 518.39L626.671 518.035L631.821 515.145V515.195ZM625.008 533.452L629.675 534.112L630.373 534.213L630.48 534.72L631.929 541.161L624.364 542.53L624.793 536.799L625.061 533.452H625.008ZM639.762 548.261L633.538 541.769L636.328 540.755L639.762 539.538V548.261ZM650.17 534.72L650.277 534.213L654.408 533.604L655.588 533.452L655.857 536.799L656.286 542.53L648.721 541.161L650.17 534.72ZM659.022 517.224L655.857 517.63V516.514L655.374 506.878L660.739 516.97L659.022 517.173V517.224ZM645.395 499.525L645.127 499.93L641.747 492.729L647.058 496.685L645.395 499.525ZM624.793 517.579L621.628 517.173L619.911 516.97L625.276 506.878L624.793 517.579ZM623.774 533.807H623.827L623.559 537.357L623.237 541.566L619.374 536.14L623.72 533.807H623.774ZM632.894 542.733L634.665 544.609L638.688 548.819L631.929 547.551L632.841 542.733H632.894ZM646.092 544.406L647.702 542.733L648.614 547.551L641.854 548.819L646.092 544.406ZM656.393 518.593L661.114 517.985L662.777 525.541L656.393 518.542V518.593ZM638.849 492.78L635.469 499.981L633.538 496.736L638.849 492.78ZM619.482 518.035L624.203 518.644L617.818 525.642L619.482 518.086V518.035ZM623.452 532.742L619.482 534.872L619.053 535.126L617.711 528.685L623.505 532.742H623.452ZM627.207 543.088L631.821 542.276L630.909 547.094L625.169 543.443L627.207 543.088ZM649.687 547.094L648.775 542.276L653.389 543.088L655.427 543.443L649.687 547.094ZM661.597 535.126L661.168 534.872L657.198 532.742L662.992 528.685L661.651 535.126H661.597Z" fill="#99A8BF"/>
<path opacity="0.1" d="M756.345 270.4C756.345 270.4 756.345 270.349 756.345 270.298L754.145 260.257C754.145 260.257 754.145 260.206 754.145 260.155L747.278 247.173C747.278 247.173 747.278 247.173 747.278 247.122L740.357 239.261C740.357 239.261 740.357 239.261 740.357 239.211L732.9 233.683C732.9 233.683 732.9 233.683 732.846 233.683C732.846 233.683 732.846 233.683 732.793 233.683C732.793 233.683 732.793 233.683 732.739 233.683C732.739 233.683 732.739 233.683 732.685 233.683C732.685 233.683 732.685 233.683 732.632 233.683C732.632 233.683 732.632 233.683 732.578 233.683L725.121 239.211C725.121 239.211 725.121 239.211 725.121 239.261L718.2 247.122C718.2 247.122 718.2 247.122 718.2 247.173L711.332 260.155C711.332 260.155 711.332 260.206 711.332 260.257L709.133 270.298C709.133 270.298 709.133 270.349 709.133 270.4L710.903 278.869C710.903 278.92 710.903 278.97 710.957 279.021L716.054 286.222C716.054 286.222 716.054 286.222 716.107 286.273L723.726 291.091C723.779 291.091 723.833 291.142 723.887 291.142L732.846 292.815C732.846 292.815 732.9 292.815 732.954 292.815C733.007 292.815 733.007 292.815 733.061 292.815L742.02 291.142C742.074 291.142 742.128 291.142 742.181 291.091L749.8 286.273C749.8 286.273 749.8 286.273 749.853 286.222L754.95 279.021C754.95 279.021 754.95 278.92 755.004 278.869L756.774 270.4H756.345ZM753.18 279.021L749.317 284.447L748.995 280.238L748.727 276.637H748.78L753.126 279.021H753.18ZM724.691 240.377L726.676 243.724L719.648 246.108L724.691 240.377ZM744.918 246.158L737.889 243.775L739.874 240.428L744.918 246.158ZM732.846 291.192V282.47L736.28 283.687L739.016 284.65L738.319 285.36L732.793 291.142L732.846 291.192ZM746.152 247.68L746.688 260.105L740.196 256.453L739.284 251.991L737.836 244.84L744.274 247.021L746.152 247.68ZM727.803 245.296L728.501 246.108L731.559 249.81L729.574 251.686L725.818 255.236L727.857 245.296H727.803ZM733.061 249.81L736.763 245.296L738.801 255.236L735.582 252.244L733.061 249.861V249.81ZM725.389 257.113L732.31 250.621L739.177 257.113L740.465 260.358L743.415 267.712L742.557 271.11L741.269 276.13L732.256 280.999L728.501 278.97L723.243 276.181V276.08L722.116 271.668L721.097 267.61L724.048 260.257L725.335 257.011L725.389 257.113ZM741.001 277.652L739.606 283.737L733.597 281.607L740.947 277.652H741.001ZM730.969 281.607L724.96 283.737L723.565 277.652L730.915 281.607H730.969ZM719.917 267.712L716.268 274.913L709.669 270.298L717.18 262.083L717.395 262.539L719.917 267.712ZM720.346 269.284L720.936 271.718L722.009 275.978L717.288 275.268L719.648 270.603L720.346 269.284ZM747.278 275.268L742.557 275.978L744.274 269.284L744.971 270.603L747.332 275.268H747.278ZM747.171 262.539L747.386 262.083L754.897 270.298L748.298 274.913L744.649 267.712L747.171 262.539ZM746.581 261.271L744.166 266.292L741.484 259.598L740.84 258.076L745.991 260.967L746.581 261.322V261.271ZM736.441 243.978L732.9 248.339V236.421L736.441 243.978ZM731.72 236.421V248.339L728.179 243.978L731.72 236.421ZM718.468 247.68L720.346 247.071L726.784 244.891L725.335 252.041L724.423 256.504L717.931 260.155L718.468 247.731V247.68ZM723.779 258.076L723.618 258.431L720.453 266.292L718.039 261.271L718.629 260.916L723.779 258.025V258.076ZM716.966 276.333L721.633 276.992L722.331 277.094L722.438 277.601L723.887 284.042L716.322 285.411L716.751 279.68L717.019 276.333H716.966ZM731.72 291.192L725.496 284.701L728.286 283.687L731.72 282.47V291.192ZM742.181 277.601L742.289 277.094L746.42 276.485L747.6 276.333L747.868 279.68L748.298 285.411L740.733 284.042L742.181 277.601ZM750.98 260.105L747.815 260.51V259.395L747.332 249.759L752.697 259.851L750.98 260.054V260.105ZM737.407 242.406L737.138 242.811L733.758 235.61L739.07 239.566L737.407 242.406ZM716.751 260.46L713.586 260.054L711.869 259.851L717.234 249.759L716.751 260.46ZM715.785 276.688H715.839L715.571 280.238L715.249 284.447L711.386 279.021L715.732 276.688H715.785ZM724.906 285.614L726.676 287.49L730.7 291.699L723.94 290.432L724.852 285.614H724.906ZM738.05 287.287L739.66 285.614L740.572 290.432L733.812 291.699L738.05 287.287ZM748.405 261.474L753.126 260.865L754.789 268.422L748.405 261.423V261.474ZM730.861 235.661L727.481 242.862L725.55 239.616L730.861 235.661ZM711.44 260.916L716.161 261.525L709.777 268.523L711.44 260.967V260.916ZM715.41 275.623L711.44 277.753L711.011 278.007L709.669 271.566L715.464 275.623H715.41ZM719.219 285.969L723.833 285.157L722.921 289.975L717.18 286.324L719.219 285.969ZM741.699 289.975L740.787 285.157L745.4 285.969L747.439 286.324L741.699 289.975ZM753.555 278.007L753.126 277.753L749.156 275.623L754.95 271.566L753.609 278.007H753.555Z" fill="#99A8BF"/>
<path opacity="0.1" d="M563.097 561.953C563.097 561.953 563.097 561.953 563.097 561.903C563.097 561.751 563.097 561.649 563.097 561.497C563.097 561.497 563.097 561.446 563.097 561.396L553.923 519.557C553.923 519.557 553.816 519.354 553.762 519.202C553.762 519.151 553.762 519.05 553.762 518.999L525.113 464.837C525.113 464.837 525.059 464.735 525.006 464.735C525.006 464.634 524.898 464.583 524.845 464.482C524.845 464.482 524.845 464.482 524.845 464.431L496.088 431.771C496.088 431.771 495.981 431.72 495.927 431.67C495.873 431.619 495.82 431.518 495.712 431.467L464.542 408.341C464.542 408.341 464.488 408.341 464.434 408.291C464.381 408.291 464.327 408.189 464.273 408.189C464.22 408.189 464.112 408.139 464.059 408.088C464.059 408.088 463.951 408.037 463.898 407.986C463.898 407.986 463.791 407.986 463.737 407.986C463.737 407.986 463.683 407.986 463.63 407.986C463.63 407.986 463.576 407.986 463.522 407.986C463.469 407.986 463.361 407.986 463.308 407.986C463.2 407.986 463.093 407.986 462.986 407.986C462.878 407.986 462.825 407.986 462.718 407.986C462.718 407.986 462.718 407.986 462.664 407.986C462.664 407.986 462.61 407.986 462.557 407.986C462.449 407.986 462.342 408.037 462.235 408.088C462.127 408.088 462.074 408.139 461.966 408.189C461.913 408.189 461.859 408.24 461.805 408.291C461.805 408.291 461.752 408.291 461.698 408.341L430.527 431.467C430.527 431.467 430.366 431.619 430.313 431.67C430.313 431.67 430.205 431.72 430.152 431.771L401.395 464.431C401.395 464.431 401.395 464.431 401.395 464.482C401.342 464.583 401.288 464.634 401.234 464.735C401.234 464.735 401.181 464.837 401.127 464.837L372.478 518.999C372.478 518.999 372.478 519.151 372.478 519.202C372.478 519.303 372.37 519.405 372.317 519.557L363.143 561.396C363.143 561.396 363.143 561.446 363.143 561.497C363.143 561.649 363.143 561.751 363.143 561.903C363.143 561.903 363.143 561.903 363.143 561.953C363.143 561.953 363.143 562.004 363.143 562.055C363.143 562.055 363.143 562.106 363.143 562.156C363.143 562.156 363.143 562.207 363.143 562.258L370.6 597.605C370.6 597.656 370.654 597.707 370.654 597.757C370.707 597.96 370.815 598.214 370.922 598.417L392.114 628.388C392.114 628.388 392.114 628.388 392.167 628.388C392.221 628.49 392.328 628.591 392.436 628.693C392.436 628.693 392.436 628.743 392.489 628.794C392.489 628.794 392.597 628.794 392.597 628.845C392.597 628.845 392.704 628.946 392.758 628.946L424.465 648.978C424.465 648.978 424.948 649.232 425.216 649.282C425.216 649.282 425.216 649.282 425.323 649.282L462.771 656.332C462.771 656.332 463.093 656.332 463.254 656.332C463.415 656.332 463.576 656.332 463.737 656.332L501.185 649.282C501.185 649.282 501.185 649.282 501.292 649.282C501.56 649.232 501.829 649.13 502.043 648.978L533.751 628.946C533.751 628.946 533.858 628.845 533.911 628.845C533.911 628.845 534.019 628.845 534.019 628.794C534.019 628.794 534.019 628.743 534.072 628.693C534.18 628.591 534.287 628.49 534.341 628.388L555.533 598.417C555.533 598.417 555.747 598.011 555.801 597.757C555.801 597.707 555.854 597.656 555.854 597.605L563.312 562.207C563.312 562.207 563.312 562.156 563.312 562.105C563.312 562.105 563.312 562.055 563.312 562.004C563.312 562.004 563.312 561.953 563.312 561.903L563.097 561.953ZM549.953 597.96L533.965 620.578L532.624 603.032L531.497 588.071L531.819 588.223L549.953 597.96ZM431.439 437.045L439.648 451.042L410.355 460.982L431.386 437.096L431.439 437.045ZM515.563 460.932L486.27 450.992L494.479 436.995L515.509 460.881L515.563 460.932ZM465.346 648.522V612.261L479.725 617.384L491.206 621.491L488.362 624.433L465.293 648.522H465.346ZM520.606 467.372L522.859 519.202L495.927 504.038L492.118 485.477L486.002 455.657L512.773 464.735L520.66 467.423L520.606 467.372ZM444.369 457.483L447.159 460.932L459.82 476.349L451.558 484.108L435.892 498.815L444.369 457.483ZM466.098 476.298L481.549 457.432L490.026 498.764L476.667 486.238L466.044 476.298H466.098ZM434.176 506.675L462.986 479.645L463.2 479.848L491.796 506.675L497.215 520.216L509.554 550.898L505.96 564.996L500.648 585.992C500.648 585.992 500.648 586.093 500.648 586.144V586.448L463.039 606.531L447.32 598.112L425.484 586.448L425.377 586.093C425.377 586.093 425.377 586.093 425.377 586.042L420.709 567.735L416.417 550.948L428.757 520.267L434.176 506.726V506.675ZM499.253 592.229L493.566 617.536L468.565 608.61L499.307 592.179L499.253 592.229ZM457.46 608.661L432.459 617.586L426.772 592.28L457.513 608.711L457.46 608.661ZM411.321 550.746L396.191 580.717L368.615 561.497L399.947 527.316L400.912 529.294L411.321 550.746ZM413.198 557.338L415.774 567.38L420.28 585.13L400.591 582.29L410.408 562.815L413.198 557.288V557.338ZM525.381 582.34L505.691 585.18L512.773 557.338L515.563 562.866L525.381 582.34ZM525.059 529.243L526.025 527.265L557.357 561.446L529.78 580.667L514.651 550.695L525.059 529.243ZM522.377 524.07L512.237 544.964L501.024 516.97L498.449 510.58L519.909 522.65L522.43 524.07H522.377ZM480.208 451.905L465.346 470.009V420.462L480.208 451.955V451.905ZM460.625 420.462V470.009L445.764 451.905L460.625 420.411V420.462ZM405.312 467.372L413.037 464.735L439.916 455.607L433.8 485.426L429.991 503.988L403.058 519.151L405.312 467.322V467.372ZM427.523 510.631L426.879 512.203L413.681 545.015L403.541 524.121L406.063 522.701L427.523 510.631ZM399.249 586.651L418.563 589.44L421.353 589.846L421.836 591.925L427.898 618.804L396.406 624.483L398.23 600.648L399.303 586.651H399.249ZM460.625 648.522L434.766 621.491L446.461 617.333L460.679 612.261V648.522H460.625ZM504.136 591.925L504.618 589.846L521.894 587.361L526.776 586.651L527.849 600.648L529.673 624.483L498.18 618.804L504.243 591.925H504.136ZM540.832 519.05L527.634 520.672L527.42 516.057L525.703 476.044L547.968 518.187L540.832 519.05ZM484.178 445.515L483.105 447.29L468.941 417.318L491.045 433.749L484.124 445.515H484.178ZM398.337 520.672L385.139 519.05L378.004 518.187L400.269 476.044L398.337 520.672ZM394.152 588.223L394.474 588.071L393.348 603.032L392.006 620.578L376.019 597.96L394.152 588.223ZM432.137 625.396L439.594 633.206L456.44 650.804L428.274 645.479L432.137 625.396ZM487.075 632.395L493.835 625.346L497.697 645.428L469.531 650.753L487.128 632.395H487.075ZM530.049 524.882L549.738 522.447L556.659 553.941L530.049 524.882ZM456.977 417.318L442.813 447.29L434.819 433.749L456.923 417.318H456.977ZM376.233 522.447L395.923 524.882L369.312 553.941L376.233 522.447ZM392.811 583.862L376.18 592.787L374.302 593.802L368.669 567.075L392.758 583.912L392.811 583.862ZM408.477 626.816L427.791 623.317L423.928 643.501L399.947 628.338L408.477 626.816ZM502.097 643.501L498.234 623.317L517.548 626.816L526.079 628.338L502.097 643.501ZM551.67 593.751L549.792 592.737L533.16 583.811L557.249 566.974L551.616 593.7L551.67 593.751Z" fill="#99A8BF"/>
<path opacity="0.1" d="M712.298 35.0881C712.298 34.9867 712.298 34.936 712.298 34.8345C712.298 34.8345 712.298 34.8345 712.298 34.7838L707.202 11.5062C707.202 11.5062 707.148 11.4048 707.094 11.3034V11.2019L691.16 -18.922C691.16 -18.922 691.16 -18.922 691.106 -18.9727C691.106 -18.9727 691.053 -19.0742 690.999 -19.1249L675.011 -37.2804C675.011 -37.2804 674.958 -37.2804 674.958 -37.3311C674.958 -37.3311 674.904 -37.4326 674.85 -37.4326L657.521 -50.2631C657.521 -50.2631 657.521 -50.2631 657.468 -50.2631C657.468 -50.2631 657.414 -50.2631 657.36 -50.3138C657.36 -50.3138 657.253 -50.3138 657.253 -50.3646C657.253 -50.3646 657.199 -50.3646 657.146 -50.3646C657.146 -50.3646 657.092 -50.3646 657.039 -50.3646C657.039 -50.3646 657.038 -50.3646 656.985 -50.3646H656.878C656.824 -50.3646 656.77 -50.3646 656.717 -50.3646C656.717 -50.3646 656.609 -50.3646 656.556 -50.3646C656.556 -50.3646 656.556 -50.3646 656.502 -50.3646C656.448 -50.3646 656.395 -50.3646 656.341 -50.3138C656.341 -50.3138 656.234 -50.3138 656.18 -50.2631C656.18 -50.2631 656.126 -50.2631 656.073 -50.2124C656.073 -50.2124 656.073 -50.2124 656.019 -50.2124L638.69 -37.3818C638.69 -37.3818 638.636 -37.2804 638.583 -37.2804C638.583 -37.2804 638.529 -37.2804 638.529 -37.2297L622.541 -19.0742C622.541 -19.0742 622.488 -18.9727 622.434 -18.922C622.434 -18.922 622.434 -18.922 622.38 -18.8713L606.446 11.2527V11.3541C606.446 11.4048 606.393 11.4555 606.339 11.5569L601.242 34.8345C601.242 34.8345 601.242 34.8345 601.242 34.8853C601.242 34.936 601.242 35.0374 601.242 35.1388C601.242 35.1388 601.242 35.1388 601.242 35.1895C601.242 35.1895 601.242 35.1895 601.242 35.2403L605.373 54.8665C605.373 54.8665 605.373 54.9172 605.373 54.9679C605.373 55.0693 605.427 55.2215 605.534 55.3229L617.337 72.0077C617.337 72.0584 617.445 72.1092 617.498 72.1599C617.498 72.1599 617.498 72.1599 617.498 72.2106C617.498 72.2106 617.498 72.2106 617.552 72.2106C617.552 72.2106 617.552 72.2106 617.606 72.2613L635.256 83.4183C635.256 83.4183 635.525 83.5705 635.686 83.5705L656.502 87.4754C656.502 87.4754 656.663 87.4754 656.77 87.4754C656.878 87.4754 656.931 87.4754 657.039 87.4754L677.855 83.5705C678.016 83.5705 678.123 83.469 678.284 83.4183L695.935 72.2613C695.935 72.2613 695.935 72.2613 695.989 72.2106C695.989 72.2106 695.989 72.2106 696.042 72.2106C696.042 72.2106 696.042 72.2106 696.042 72.1599C696.096 72.1599 696.15 72.0584 696.203 72.0077L708.006 55.3229C708.006 55.3229 708.114 55.0693 708.167 54.9679C708.167 54.9679 708.167 54.9679 708.167 54.8665L712.298 35.1895C712.298 35.1895 712.298 35.1895 712.298 35.1388C712.298 35.1388 712.298 35.1388 712.298 35.0881ZM705.002 55.12L696.096 67.6971L695.345 57.9093L694.701 49.5922L694.862 49.6937L704.948 55.12H705.002ZM639.119 -34.339L643.68 -26.5798L627.424 -21.052L639.119 -34.339ZM685.849 -21.052L669.593 -26.5798L674.153 -34.339L685.849 -21.052ZM657.951 83.2155V63.0821L665.944 65.9221L672.329 68.2042L670.773 69.827L657.951 83.2155ZM688.692 -17.5021L689.926 11.3034L674.958 2.88488L672.865 -7.46073L669.485 -24.0441L684.347 -19.0235L688.746 -17.5528L688.692 -17.5021ZM646.308 -22.9791L647.864 -21.052L654.892 -12.4814L650.279 -8.17072L641.587 -0.00580215L646.308 -22.9791ZM658.38 -12.5321L666.964 -23.0299L671.685 -0.0565186L664.281 -7.0043L658.38 -12.5321ZM640.621 4.35558L656.663 -10.7064L656.77 -10.605L672.704 4.30487L675.709 11.8612L682.576 28.901L680.591 36.7617L677.64 48.4258C677.64 48.4258 677.64 48.4765 677.64 48.5273V48.6794L656.717 59.8364L647.972 55.1708L635.847 48.6794V48.4765H635.793L633.218 38.2831L630.857 28.9518L637.724 11.9119L640.729 4.35558H640.621ZM676.782 51.9251L673.616 66.0235L659.721 61.0536L676.782 51.9251ZM653.551 61.0536L639.656 66.0235L636.49 51.9251L653.551 61.0536ZM627.906 28.8503L619.483 45.5351L604.139 34.8345L621.522 15.8169L622.059 16.9326L627.853 28.8503H627.906ZM628.979 32.5524L630.428 38.1309L632.95 48.0201L622.005 46.448L627.477 35.646L629.033 32.5524H628.979ZM691.321 46.448L680.376 48.0201L684.293 32.5524L685.849 35.646L691.321 46.448ZM691.16 16.9326L691.697 15.8169L709.079 34.8345L693.735 45.5351L685.312 28.8503L691.106 16.9326H691.16ZM689.658 14.0419L684.025 25.6553L677.801 10.0862L676.353 6.53627L688.263 13.2305L689.658 14.0419ZM666.213 -26.0727L657.951 -16.0314V-43.5689L666.213 -26.0727ZM655.322 -43.5689V-16.0314L647.06 -26.0727L655.322 -43.5689ZM624.58 -17.5021L628.872 -18.9727L643.841 -24.0441L640.461 -7.46073L638.368 2.88488L623.4 11.3034L624.634 -17.5021H624.58ZM636.92 6.53627L636.544 7.3984L629.194 25.6553L623.561 14.0419L624.956 13.2305L636.866 6.53627H636.92ZM621.2 48.8315L631.93 50.4037L633.486 50.6065L633.754 51.7729L637.134 66.7335L619.644 69.8778L620.664 56.6415L621.254 48.8315H621.2ZM655.322 83.2155L640.943 68.2042L647.435 65.8714L655.322 63.0821V83.2155ZM679.518 51.7729L679.786 50.6065L689.39 49.2373L692.072 48.8315L692.662 56.6415L693.682 69.8778L676.192 66.7335L679.572 51.7729H679.518ZM699.905 11.2527L692.555 12.1655L692.448 9.62981L691.482 -12.6335L703.875 10.7962L699.905 11.3034V11.2527ZM668.412 -29.6734L667.822 -28.6591L659.936 -45.2932L672.222 -36.1647L668.359 -29.6226L668.412 -29.6734ZM620.664 12.1655L613.314 11.2527L609.343 10.7455L621.737 -12.6842L620.664 12.1148V12.1655ZM618.357 49.6937L618.518 49.5922L617.874 57.9093L617.123 67.6971L608.217 55.12L618.303 49.6937H618.357ZM639.495 70.3342L643.626 74.6956L652.961 84.4833L637.295 81.5419L639.441 70.3849L639.495 70.3342ZM670.022 74.2898L673.777 70.3849L675.923 81.5419L660.258 84.4833L670.022 74.2898ZM693.896 14.4983L704.841 13.1291L708.704 30.6253L693.95 14.4983H693.896ZM653.283 -45.2932L645.396 -28.6591L640.943 -36.2154L653.229 -45.3439L653.283 -45.2932ZM608.431 13.1291L619.376 14.4983L604.622 30.6253L608.485 13.1291H608.431ZM617.606 47.2594L608.378 52.2294L607.358 52.7872L604.247 37.9281L617.659 47.2594H617.606ZM626.297 71.1456L637.027 69.2185L634.881 80.4262L621.576 72.0077L626.351 71.1456H626.297ZM678.391 80.4262L676.245 69.2185L686.975 71.1456L691.75 72.0077L678.445 80.4262H678.391ZM705.914 52.7872L704.895 52.2294L695.667 47.2594L709.079 37.9281L705.968 52.7872H705.914Z" fill="#99A8BF"/>
<path opacity="0.1" d="M310.405 494.453C310.405 494.403 310.405 494.352 310.405 494.301L306.971 478.732C306.971 478.732 306.971 478.631 306.918 478.631C306.918 478.631 306.918 478.58 306.918 478.529L296.295 458.396C296.295 458.396 296.295 458.345 296.241 458.294L285.565 446.174C285.565 446.174 285.565 446.123 285.511 446.072L273.923 437.502C273.923 437.502 273.923 437.502 273.869 437.502C273.869 437.502 273.815 437.502 273.762 437.502C273.762 437.502 273.762 437.502 273.708 437.502C273.708 437.502 273.708 437.502 273.654 437.502C273.654 437.502 273.601 437.502 273.547 437.502H273.44C273.44 437.502 273.386 437.502 273.332 437.502C273.332 437.502 273.279 437.502 273.225 437.502C273.225 437.502 273.172 437.502 273.118 437.502C273.118 437.502 273.118 437.502 273.064 437.502L261.476 446.072C261.476 446.072 261.476 446.123 261.422 446.174L250.746 458.294C250.746 458.294 250.746 458.345 250.692 458.396L240.069 478.529V478.58C240.069 478.58 240.069 478.681 240.016 478.681L236.582 494.25C236.582 494.25 236.582 494.352 236.582 494.403L239.318 507.537C239.318 507.537 239.318 507.537 239.318 507.588C239.318 507.69 239.318 507.74 239.425 507.842L247.312 518.999C247.312 518.999 247.366 519.05 247.419 519.1L259.222 526.555C259.222 526.555 259.383 526.657 259.491 526.657L273.386 529.294C273.386 529.294 273.493 529.294 273.547 529.294C273.601 529.294 273.654 529.294 273.708 529.294L287.603 526.657C287.711 526.657 287.818 526.606 287.872 526.555L299.675 519.1C299.675 519.1 299.728 519.049 299.782 518.999L307.669 507.842C307.669 507.842 307.722 507.69 307.776 507.588C307.776 507.588 307.776 507.588 307.776 507.537L310.512 494.403L310.405 494.453ZM305.523 507.842L299.567 516.26L299.085 509.718L298.655 504.19H298.763L305.523 507.842ZM261.476 448.101L264.534 453.274L253.643 456.976L261.476 448.101ZM292.754 456.976L281.863 453.274L284.921 448.101L292.754 456.976ZM274.084 526.606V513.167L279.395 515.043L283.687 516.565L282.614 517.68L274.03 526.606H274.084ZM294.632 459.359L295.49 478.58L285.457 472.951L284.063 466.054L281.809 454.998L291.735 458.345L294.632 459.359ZM266.304 455.657L267.324 456.925L272.045 462.656L268.987 465.546L263.193 471.024L266.358 455.657H266.304ZM274.352 462.656L280.092 455.657L283.258 471.024L278.322 466.358L274.405 462.656H274.352ZM262.495 473.965L273.225 463.924H273.279L283.902 473.965L285.94 478.986L290.501 490.345L289.159 495.569L287.174 503.379C287.174 503.379 287.174 503.379 287.174 503.43V503.531L273.225 510.986L267.377 507.842L259.276 503.531V503.379L257.559 496.583L255.95 490.345L260.51 478.986L262.549 473.965H262.495ZM286.691 505.712L284.599 515.094L275.318 511.797L286.745 505.712H286.691ZM271.133 511.797L261.851 515.094L259.759 505.712L271.186 511.797H271.133ZM254.018 490.295L248.385 501.401L238.138 494.25L249.78 481.572L250.156 482.333L254.018 490.295ZM254.716 492.78L255.682 496.533L257.345 503.125L250.048 502.06L253.696 494.859L254.716 492.78ZM296.402 502.06L289.106 503.125L291.735 492.78L292.754 494.859L296.402 502.06ZM296.241 482.333L296.617 481.572L308.259 494.25L298.012 501.401L292.378 490.295L296.241 482.333ZM295.275 480.406L291.52 488.165L287.335 477.769L286.37 475.385L294.363 479.848L295.275 480.355V480.406ZM279.61 453.629L274.084 460.323V441.914L279.61 453.578V453.629ZM272.313 441.914V460.323L266.787 453.629L272.313 441.965V441.914ZM251.819 459.359L254.716 458.396L264.695 454.998L262.441 466.054L261.047 472.951L251.014 478.58L251.872 459.359H251.819ZM260.027 475.385L259.813 475.994L254.93 488.165L251.175 480.406L252.087 479.898L260.027 475.436V475.385ZM249.565 503.633L256.755 504.647L257.774 504.799L257.935 505.56L260.188 515.55L248.492 517.68L249.136 508.856L249.512 503.633H249.565ZM272.313 526.606L262.71 516.565L267.055 515.043L272.313 513.167V526.606ZM288.462 505.61L288.623 504.85L295.061 503.937L296.885 503.683L297.261 508.907L297.904 517.731L286.209 515.601L288.462 505.61ZM302.143 478.529L297.261 479.138V477.414L296.563 462.554L304.825 478.174L302.143 478.478V478.529ZM281.058 451.195L280.683 451.854L275.425 440.747L283.633 446.833L281.058 451.195ZM249.19 479.138L244.308 478.529L241.625 478.225L249.887 462.605L249.19 479.188V479.138ZM247.634 504.241H247.741L247.312 509.718L246.829 516.26L240.874 507.842L247.634 504.241ZM261.744 518.035L264.534 520.926L270.811 527.468L260.349 525.49L261.798 518.035H261.744ZM282.131 520.622L284.653 517.985L286.101 525.439L275.639 527.417L282.185 520.622H282.131ZM298.119 480.71L305.415 479.797L307.991 491.461L298.119 480.659V480.71ZM270.972 440.747L265.714 451.854L262.763 446.833L270.972 440.747ZM240.981 479.797L248.278 480.71L238.406 491.512L240.981 479.848V479.797ZM247.151 502.568L240.981 505.864L240.284 506.219L238.192 496.279L247.151 502.517V502.568ZM252.945 518.542L260.135 517.275L258.686 524.78L249.78 519.151L252.945 518.593V518.542ZM287.711 524.729L286.262 517.224L293.451 518.492L296.617 519.049L287.711 524.679V524.729ZM306.113 506.27L305.415 505.915L299.246 502.618L308.205 496.38L306.113 506.32V506.27Z" fill="#99A8BF"/>
<path opacity="0.1" d="M102.508 167.603C102.508 167.552 102.508 167.502 102.508 167.451L99.0747 151.882C99.0747 151.882 99.0748 151.78 99.0211 151.78C99.0211 151.78 99.0211 151.73 99.0211 151.679L88.3983 131.546C88.3983 131.546 88.3983 131.495 88.3447 131.444L77.6683 119.324C77.6683 119.324 77.6683 119.273 77.6146 119.222L66.0262 110.652C66.0262 110.652 66.0262 110.652 65.9725 110.652C65.9725 110.652 65.9189 110.652 65.8652 110.652C65.8652 110.652 65.8652 110.652 65.8116 110.652C65.8116 110.652 65.8116 110.652 65.7579 110.652C65.7579 110.652 65.7043 110.652 65.6506 110.652H65.5433C65.5433 110.652 65.4897 110.652 65.436 110.652C65.436 110.652 65.3824 110.652 65.3287 110.652C65.3287 110.652 65.2751 110.652 65.2214 110.652C65.2214 110.652 65.2214 110.652 65.1678 110.652L53.5793 119.222C53.5793 119.222 53.5793 119.273 53.5256 119.324L42.8492 131.444C42.8492 131.444 42.8492 131.495 42.7956 131.546L32.1728 151.679V151.73C32.1728 151.73 32.1728 151.831 32.1192 151.831L28.6855 167.4C28.6855 167.4 28.6855 167.502 28.6855 167.552L31.4217 180.687C31.4217 180.687 31.4217 180.687 31.4217 180.738C31.4217 180.839 31.4217 180.89 31.529 180.992L39.4156 192.149C39.4156 192.149 39.4693 192.199 39.5229 192.25L51.326 199.705C51.326 199.705 51.4869 199.806 51.5942 199.806L65.4897 202.444C65.4897 202.444 65.597 202.444 65.6506 202.444C65.7043 202.444 65.7579 202.444 65.8116 202.444L79.707 199.806C79.8143 199.806 79.9216 199.756 79.9753 199.705L91.7783 192.25C91.7783 192.25 91.832 192.199 91.8856 192.149L99.7722 180.992C99.7722 180.992 99.8259 180.839 99.8795 180.738C99.8795 180.738 99.8795 180.738 99.8795 180.687L102.616 167.552L102.508 167.603ZM97.6262 180.941L91.671 189.359L91.1882 182.817L90.759 177.289H90.8663L97.6262 180.941ZM53.6329 121.2L56.691 126.373L45.8 130.075L53.6329 121.2ZM84.8574 130.075L73.9664 126.373L77.0245 121.2L84.8574 130.075ZM66.1871 199.756V186.317L71.4985 188.193L75.7905 189.714L74.7175 190.83L66.1335 199.756H66.1871ZM86.7352 132.459L87.5936 151.679L77.561 146.05L76.1661 139.153L73.9128 128.097L83.8381 131.444L86.7352 132.459ZM58.4078 128.807L59.4272 130.075L64.1484 135.806L61.0903 138.696L55.2961 144.173L58.4615 128.807H58.4078ZM66.509 135.806L72.2496 128.807L75.415 144.173L70.4791 139.508L66.5627 135.806H66.509ZM54.5987 147.064L65.3287 137.023H65.3824L76.0051 147.064L78.0438 152.085L82.6041 163.445L81.2628 168.668L79.2778 176.478C79.2778 176.478 79.2778 176.478 79.2778 176.529V176.63L65.3287 184.085L59.4808 180.941L51.3796 176.63V176.478L49.6628 169.682L48.0533 163.445L52.6136 152.085L54.6523 147.064H54.5987ZM78.7949 178.811L76.7026 188.193L67.4211 184.897L78.8486 178.811H78.7949ZM63.29 184.947L54.0085 188.244L51.9161 178.862L63.3436 184.947H63.29ZM46.1756 163.445L40.5423 174.551L30.2951 167.4L41.9372 154.722L42.3127 155.483L46.1756 163.445ZM46.8194 165.879L47.7851 169.632L49.4482 176.225L42.1518 175.16L45.8 167.958L46.8194 165.879ZM88.5056 175.16L81.2092 176.225L83.8381 165.879L84.8574 167.958L88.5056 175.16ZM88.3983 155.432L88.7739 154.671L100.416 167.35L90.1688 174.5L84.5355 163.394L88.3983 155.432ZM87.379 153.555L83.6235 161.315L79.4387 150.918L78.473 148.535L86.4669 152.998L87.379 153.505V153.555ZM71.7131 126.728L66.1871 133.422V115.013L71.7131 126.677V126.728ZM64.4703 115.064V133.473L58.9443 126.779L64.4703 115.114V115.064ZM43.9222 132.459L46.8194 131.495L56.7983 128.097L54.545 139.153L53.1501 146.05L43.1175 151.679L43.9759 132.459H43.9222ZM52.1844 148.535L51.9698 149.143L47.0876 161.315L43.3321 153.555L44.2441 153.048L52.1844 148.585V148.535ZM41.6689 176.782L48.8581 177.797L49.8774 177.949L50.0384 178.709L52.2917 188.7L40.5959 190.83L41.2397 182.006L41.6153 176.782H41.6689ZM64.4703 199.756L54.8669 189.714L59.2126 188.193L64.4703 186.317V199.756ZM80.619 178.709L80.78 177.949L87.218 177.036L89.0421 176.782L89.4177 182.006L90.0615 190.83L78.3657 188.7L80.619 178.709ZM94.2462 151.679L89.3641 152.288V150.563L88.6666 135.704L96.9287 151.324L94.2462 151.628V151.679ZM73.2153 124.344L72.8397 125.004L67.582 113.897L75.7905 119.983L73.2153 124.344ZM41.2934 152.288L36.4112 151.679L33.7287 151.375L41.9908 135.755L41.2934 152.338V152.288ZM39.7375 177.34H39.8448L39.4156 182.817L38.9328 189.359L32.9776 180.941L39.7375 177.34ZM53.9012 191.134L56.691 194.025L62.9681 200.567L52.5063 198.589L53.9548 191.134H53.9012ZM74.2883 193.771L76.8099 191.134L78.2584 198.589L67.7966 200.567L74.342 193.771H74.2883ZM90.2225 153.809L97.5189 152.896L100.094 164.56L90.2225 153.758V153.809ZM63.0754 113.897L57.8177 125.004L54.8669 119.983L63.0754 113.897ZM33.1385 152.896L40.435 153.809L30.5633 164.611L33.1385 152.947V152.896ZM39.2547 175.717L33.0849 179.014L32.3874 179.369L30.2951 169.429L39.2547 175.667V175.717ZM45.1025 191.692L52.2917 190.424L50.8431 197.93L41.9372 192.301L45.1025 191.743V191.692ZM79.8679 197.879L78.4194 190.374L85.6085 191.641L88.7739 192.199L79.8679 197.829V197.879ZM98.27 179.419L97.5725 179.064L91.4027 175.768L100.362 169.53L98.27 179.47V179.419Z" fill="#99A8BF"/>
</g>
</g>
</g>
<defs>
<clipPath id="clip0_760_415">
<rect width="903" height="567" rx="4" fill="white"/>
</clipPath>
<clipPath id="clip1_760_415">
<rect width="1440" height="638" fill="white" transform="translate(-218 -60)"/>
</clipPath>
</defs>
</svg>
