<svg width="24" height="24" viewBox="0 0 24 24" fill="none" xmlns="http://www.w3.org/2000/svg">
<path d="M20.9961 5.97998C17.6661 5.64998 14.3161 5.47998 10.9761 5.47998C8.99609 5.47998 7.01609 5.57998 5.03609 5.77998L2.99609 5.97998" stroke="#99A8BF" stroke-width="1.5" stroke-linecap="round" stroke-linejoin="round"/>
<path d="M8.49609 4.97L8.71609 3.66C8.87609 2.71 8.99609 2 10.6861 2H13.3061C14.9961 2 15.1261 2.75 15.2761 3.67L15.4961 4.97" stroke="#99A8BF" stroke-width="1.5" stroke-linecap="round" stroke-linejoin="round"/>
<path d="M18.8465 9.14001L18.1965 19.21C18.0865 20.78 17.9965 22 15.2065 22H8.78648C5.99648 22 5.90648 20.78 5.79648 19.21L5.14648 9.14001" stroke="#99A8BF" stroke-width="1.5" stroke-linecap="round" stroke-linejoin="round"/>
<path d="M10.3262 16.5H13.6562" stroke="#99A8BF" stroke-width="1.5" stroke-linecap="round" stroke-linejoin="round"/>
<path d="M9.49609 12.5H14.4961" stroke="#99A8BF" stroke-width="1.5" stroke-linecap="round" stroke-linejoin="round"/>
</svg>
