<svg width="24" height="24" viewBox="0 0 24 24" fill="none" xmlns="http://www.w3.org/2000/svg">
<path d="M10.9961 2H8.99609C3.99609 2 1.99609 4 1.99609 9V15C1.99609 20 3.99609 22 8.99609 22H14.9961C19.9961 22 21.9961 20 21.9961 15V13" stroke="#99A8BF" stroke-width="1.5" stroke-linecap="round" stroke-linejoin="round"/>
<path d="M16.036 3.01989L8.15597 10.8999C7.85597 11.1999 7.55597 11.7899 7.49597 12.2199L7.06597 15.2299C6.90597 16.3199 7.67597 17.0799 8.76597 16.9299L11.776 16.4999C12.196 16.4399 12.786 16.1399 13.096 15.8399L20.976 7.95989C22.336 6.59989 22.976 5.01989 20.976 3.01989C18.976 1.01989 17.396 1.65989 16.036 3.01989Z" stroke="#99A8BF" stroke-width="1.5" stroke-miterlimit="10" stroke-linecap="round" stroke-linejoin="round"/>
<path d="M14.9082 4.15002C15.5782 6.54002 17.4482 8.41002 19.8482 9.09002" stroke="#99A8BF" stroke-width="1.5" stroke-miterlimit="10" stroke-linecap="round" stroke-linejoin="round"/>
</svg>
