<svg width="30" height="30" viewBox="0 0 30 30" fill="none" xmlns="http://www.w3.org/2000/svg">
<path d="M15.4088 4.09201C11.4368 4.09201 8.20882 7.32001 8.20882 11.292V14.76C8.20882 15.492 7.89682 16.608 7.52482 17.232L6.14482 19.524C5.29282 20.94 5.88082 22.512 7.44082 23.04C12.6128 24.768 18.1928 24.768 23.3648 23.04C24.8168 22.56 25.4528 20.844 24.6608 19.524L23.2808 17.232C22.9208 16.608 22.6088 15.492 22.6088 14.76V11.292C22.6088 7.33201 19.3688 4.09201 15.4088 4.09201Z" stroke="#747474" stroke-width="1.8" stroke-miterlimit="10" stroke-linecap="round"/>
<path d="M17.6287 4.44001C17.2567 4.33201 16.8727 4.24801 16.4767 4.20001C15.3247 4.05601 14.2207 4.14001 13.1887 4.44001C13.5367 3.55201 14.4007 2.92801 15.4087 2.92801C16.4167 2.92801 17.2807 3.55201 17.6287 4.44001Z" stroke="#747474" stroke-width="1.8" stroke-miterlimit="10" stroke-linecap="round" stroke-linejoin="round"/>
<path d="M19.0088 23.472C19.0088 25.452 17.3888 27.072 15.4088 27.072C14.4248 27.072 13.5128 26.664 12.8648 26.016C12.2168 25.368 11.8088 24.456 11.8088 23.472" stroke="#747474" stroke-width="1.8" stroke-miterlimit="10"/>
</svg>
