<svg width="53" height="53" viewBox="0 0 53 53" fill="none" xmlns="http://www.w3.org/2000/svg">
<rect width="53" height="53" rx="20" fill="#F4F6F6"/>
<path d="M25.1491 22.6508L27.4354 23.9L25.1491 25.1492L23.8999 27.4355L22.6507 25.1492L20.3644 23.9L22.6507 22.6508L23.8999 20.3645L25.1491 22.6508Z" fill="#747474" stroke="#747474" stroke-width="0.5" stroke-linecap="round" stroke-linejoin="round"/>
<path d="M28.2705 27.7718L29.6423 28.5213L28.2705 29.2708L27.521 30.6426L26.7715 29.2708L25.3997 28.5213L26.7715 27.7718L27.521 26.4L28.2705 27.7718Z" fill="#747474" stroke="#747474" stroke-width="0.5" stroke-linecap="round" stroke-linejoin="round"/>
<path d="M25.7999 37.2C32.0959 37.2 37.1999 32.096 37.1999 25.8C37.1999 19.5039 32.0959 14.4 25.7999 14.4C19.5039 14.4 14.3999 19.5039 14.3999 25.8C14.3999 32.096 19.5039 37.2 25.7999 37.2Z" stroke="#747474" stroke-width="1.8" stroke-linecap="round" stroke-linejoin="round"/>
<path d="M38.4 38.4L36 36" stroke="#747474" stroke-width="1.8" stroke-linecap="round" stroke-linejoin="round"/>
</svg>
