<svg width="31" height="30" viewBox="0 0 31 30" fill="none" xmlns="http://www.w3.org/2000/svg">
<path d="M15.6155 23C20.0338 23 23.6155 19.4182 23.6155 15C23.6155 10.5817 20.0338 6.99997 15.6155 6.99997C11.1972 6.99997 7.61548 10.5817 7.61548 15C7.61548 19.4182 11.1972 23 15.6155 23Z" stroke="#747474" stroke-width="1.84615" stroke-linecap="round" stroke-linejoin="round"/>
<path d="M24.4032 23.7877L24.2432 23.6277M24.2432 6.37229L24.4032 6.21229L24.2432 6.37229ZM6.82786 23.7877L6.98786 23.6277L6.82786 23.7877ZM15.6156 2.79075V2.69229V2.79075ZM15.6156 27.3077V27.2092V27.3077ZM3.40632 15H3.30786H3.40632ZM27.9232 15H27.8248H27.9232ZM6.98786 6.37229L6.82786 6.21229L6.98786 6.37229Z" stroke="#747474" stroke-width="2.46154" stroke-linecap="round" stroke-linejoin="round"/>
</svg>
